<svg preserveAspectRatio="none" overflow="visible" style="display: block;" width="60" height="60" viewBox="0 0 60 60" fill="none" xmlns="http://www.w3.org/2000/svg">
<g id="&#234;&#184;&#176;&#235;&#138;&#165; &#236;&#149;&#132;&#236;&#157;&#180;&#236;&#189;&#152;" opacity="0.75">
<path id="Vector" d="M9.2 53C7.77 53 6.54627 52.5 5.5288 51.4999C4.51133 50.4998 4.00173 49.2961 4 47.8889V12.1111C4 10.7056 4.5096 9.50274 5.5288 8.50267C6.548 7.50259 7.77173 7.0017 9.2 7H50.8C52.23 7 53.4546 7.50089 54.4738 8.50267C55.493 9.50444 56.0017 10.7073 56 12.1111V47.8889C56 49.2944 55.4913 50.4981 54.4738 51.4999C53.4563 52.5017 52.2317 53.0017 50.8 53H9.2ZM22.2 42.7778C22.9367 42.7778 23.5546 42.5324 24.0538 42.0418C24.553 41.5511 24.8017 40.9446 24.8 40.2222C24.7983 39.4998 24.5487 38.8933 24.0512 38.4027C23.5537 37.912 22.9367 37.6667 22.2 37.6667H14.4C13.6633 37.6667 13.0463 37.912 12.5488 38.4027C12.0513 38.8933 11.8017 39.4998 11.8 40.2222C11.7983 40.9446 12.0479 41.552 12.5488 42.0443C13.0497 42.5367 13.6668 42.7812 14.4 42.7778H22.2ZM36.63 30.4472L34.745 28.5944C34.225 28.0833 33.6183 27.8389 32.925 27.861C32.2317 27.8831 31.625 28.1489 31.105 28.6583C30.6283 29.1694 30.3787 29.7657 30.3562 30.4472C30.3337 31.1287 30.5833 31.725 31.105 32.2361L34.81 35.8778C35.33 36.3889 35.9367 36.6444 36.63 36.6444C37.3233 36.6444 37.93 36.3889 38.45 35.8778L47.68 26.8056C48.2 26.2944 48.46 25.6981 48.46 25.0167C48.46 24.3352 48.2 23.7389 47.68 23.2278C47.16 22.7167 46.5429 22.4611 45.8288 22.4611C45.1147 22.4611 44.4967 22.7167 43.975 23.2278L36.63 30.4472ZM22.2 32.5556C22.9367 32.5556 23.5546 32.3102 24.0538 31.8196C24.553 31.3289 24.8017 30.7224 24.8 30C24.7983 29.2776 24.5487 28.6711 24.0512 28.1804C23.5537 27.6898 22.9367 27.4444 22.2 27.4444H14.4C13.6633 27.4444 13.0463 27.6898 12.5488 28.1804C12.0513 28.6711 11.8017 29.2776 11.8 30C11.7983 30.7224 12.0479 31.3297 12.5488 31.8221C13.0497 32.3145 13.6668 32.559 14.4 32.5556H22.2ZM22.2 22.3333C22.9367 22.3333 23.5546 22.088 24.0538 21.5973C24.553 21.1067 24.8017 20.5001 24.8 19.7778C24.7983 19.0554 24.5487 18.4489 24.0512 17.9582C23.5537 17.4676 22.9367 17.2222 22.2 17.2222H14.4C13.6633 17.2222 13.0463 17.4676 12.5488 17.9582C12.0513 18.4489 11.8017 19.0554 11.8 19.7778C11.7983 20.5001 12.0479 21.1075 12.5488 21.5999C13.0497 22.0923 13.6668 22.3367 14.4 22.3333H22.2Z" fill="url(#paint0_linear_0_4)"/>
</g>
<defs>
<linearGradient id="paint0_linear_0_4" x1="30" y1="7" x2="30" y2="53" gradientUnits="userSpaceOnUse">
<stop stop-color="#3C69C3"/>
<stop offset="1" stop-color="#A2AEFB"/>
</linearGradient>
</defs>
</svg>
