<svg width="150" height="150" viewBox="0 0 150 150" fill="none" xmlns="http://www.w3.org/2000/svg">
<g opacity="0.2">
<path d="M71.2379 130.401C63.5402 130.401 56.2952 126.963 51.4653 120.928C47.0881 115.581 45.0505 108.858 45.7297 101.906V101.142C46.258 97.17 44.975 93.1212 42.1827 90.2183C39.6922 87.5446 36.2207 86.0931 32.5982 86.0931C32.2209 86.0931 30.7115 86.1695 30.2587 86.1695C25.6552 86.1695 21.3535 84.1069 18.4857 80.5165C15.9198 77.308 14.6368 73.3356 15.0896 69.2104C15.467 65.0853 17.4291 61.3421 20.5988 58.7447C23.3156 56.4529 26.7872 55.2307 30.3342 55.2307C34.9377 55.2307 39.2394 57.2933 42.1072 60.8837C42.7864 61.724 43.3902 62.6407 43.9184 63.6338C46.258 68.141 50.8615 70.8147 55.6915 70.8147C56.899 70.8147 58.031 70.6619 59.2385 70.3563C65.2759 68.6757 69.2757 62.9463 68.8984 56.6057C68.7475 54.6195 68.8984 52.6333 69.0493 50.6471C70.1059 41.6329 74.483 33.6117 81.5016 27.9587C87.3881 23.2223 94.784 20.625 102.255 20.625C112.519 20.625 122.103 25.2849 128.518 33.4589C139.989 48.1262 137.574 69.4396 123.085 81.0512C118.707 84.5653 113.425 86.9334 107.764 87.9265C100.972 89.0724 96.2179 95.3366 96.7461 102.212C97.4253 110.691 93.9538 119.018 87.539 124.366C82.9355 128.185 77.1999 130.324 71.2379 130.324V130.401Z" fill="#5060C5"/>
<path d="M71.2379 130.401C63.5402 130.401 56.2952 126.963 51.4653 120.928C47.0881 115.581 45.0505 108.858 45.7297 101.906V101.142C46.258 97.17 44.975 93.1212 42.1827 90.2183C39.6922 87.5446 36.2207 86.0931 32.5982 86.0931C32.2209 86.0931 30.7115 86.1695 30.2587 86.1695C25.6552 86.1695 21.3535 84.1069 18.4857 80.5165C15.9198 77.308 14.6368 73.3356 15.0896 69.2104C15.467 65.0853 17.4291 61.3421 20.5988 58.7447C23.3157 56.4529 26.7872 55.2307 30.3342 55.2307C34.9377 55.2307 39.2394 57.2933 42.1072 60.8837C42.7864 61.724 43.3902 62.6407 43.9184 63.6338C46.258 68.141 50.8615 70.8147 55.6915 70.8147C56.899 70.8147 58.031 70.6619 59.2385 70.3563C65.2759 68.6757 69.2757 62.9463 68.8984 56.6057C68.7475 54.6195 68.8984 52.6333 69.0493 50.6471C70.1059 41.6329 74.483 33.6117 81.5016 27.9587C87.3881 23.2223 94.784 20.625 102.255 20.625C112.519 20.625 122.103 25.2849 128.518 33.4589C139.989 48.1262 137.574 69.4396 123.085 81.0512C118.707 84.5653 113.425 86.9334 107.764 87.9265C100.972 89.0724 96.2179 95.3366 96.7461 102.212C97.4254 110.691 93.9538 119.018 87.539 124.366C82.9355 128.185 77.1999 130.324 71.2379 130.324V130.401Z" fill="#5060C5" stroke="#5060C5" stroke-width="0.04" stroke-miterlimit="10"/>
</g>
</svg>
