<svg width="48" height="48" viewBox="0 0 48 48" fill="none" xmlns="http://www.w3.org/2000/svg">
<rect width="48" height="48" rx="24" fill="url(#paint0_linear_4801_3122)" fill-opacity="0.75"/>
<g clip-path="url(#clip0_4801_3122)">
<path fill-rule="evenodd" clip-rule="evenodd" d="M27.2288 13.4998C26.8423 13.9299 26.5685 14.449 26.432 15.0109C26.2954 15.5727 26.3004 16.1597 26.4464 16.7191C26.5924 17.2785 26.8749 17.793 27.2686 18.2165C27.6624 18.6399 28.155 18.9591 28.7023 19.1453L29.1433 19.2958C29.3123 19.3534 29.4658 19.449 29.592 19.5752C29.7182 19.7014 29.8137 19.8549 29.8713 20.0238L30.023 20.4648C30.2091 21.0122 30.5281 21.5048 30.9514 21.8985C31.3748 22.2923 31.8892 22.5748 32.4485 22.7208C33.0079 22.8669 33.5948 22.8718 34.1565 22.7353C34.7183 22.5987 35.2374 22.3249 35.6673 21.9383L35.6662 28.6665C35.6662 30.2136 35.0516 31.6973 33.9576 32.7913C32.8636 33.8853 31.3799 34.4998 29.8328 34.4998H13.5007C13.1912 34.4998 12.8945 34.3769 12.6757 34.1581C12.4569 33.9393 12.334 33.6426 12.334 33.3332V19.3332C12.334 17.7861 12.9486 16.3023 14.0425 15.2084C15.1365 14.1144 16.6202 13.4998 18.1673 13.4998H27.2288ZM20.5007 21.6665C20.1912 21.6665 19.8945 21.7894 19.6757 22.0082C19.4569 22.227 19.334 22.5238 19.334 22.8332V25.1665C19.334 25.4759 19.4569 25.7727 19.6757 25.9915C19.8945 26.2103 20.1912 26.3332 20.5007 26.3332C20.8101 26.3332 21.1068 26.2103 21.3256 25.9915C21.5444 25.7727 21.6673 25.4759 21.6673 25.1665V22.8332C21.6673 22.5238 21.5444 22.227 21.3256 22.0082C21.1068 21.7894 20.8101 21.6665 20.5007 21.6665ZM27.5007 21.6665C27.1912 21.6665 26.8945 21.7894 26.6757 22.0082C26.4569 22.227 26.334 22.5238 26.334 22.8332V25.1665C26.334 25.4759 26.4569 25.7727 26.6757 25.9915C26.8945 26.2103 27.1912 26.3332 27.5007 26.3332C27.8101 26.3332 28.1068 26.2103 28.3256 25.9915C28.5444 25.7727 28.6673 25.4759 28.6673 25.1665V22.8332C28.6673 22.5238 28.5444 22.227 28.3256 22.0082C28.1068 21.7894 27.8101 21.6665 27.5007 21.6665ZM33.334 11.1665C33.5773 11.1666 33.8146 11.2428 34.0125 11.3844C34.2104 11.5261 34.359 11.726 34.4376 11.9563L34.5893 12.3973C34.9393 13.4228 35.7443 14.229 36.771 14.579L37.2108 14.7295C37.4409 14.8083 37.6406 14.9571 37.7819 15.155C37.9233 15.3529 37.9993 15.59 37.9993 15.8332C37.9993 16.0764 37.9233 16.3135 37.7819 16.5114C37.6406 16.7092 37.4409 16.858 37.2108 16.9368L36.7698 17.0885C35.7443 17.4385 34.9382 18.2435 34.5882 19.2702L34.4376 19.71C34.3588 19.9401 34.2101 20.1397 34.0122 20.2811C33.8143 20.4225 33.5772 20.4985 33.334 20.4985C33.0908 20.4985 32.8537 20.4225 32.6558 20.2811C32.4579 20.1397 32.3092 19.9401 32.2303 19.71L32.0786 19.269C31.9059 18.7628 31.6194 18.303 31.2412 17.9248C30.863 17.5466 30.4032 17.2601 29.897 17.0873L29.4572 16.9368C29.2271 16.858 29.0274 16.7092 28.886 16.5114C28.7447 16.3135 28.6687 16.0764 28.6687 15.8332C28.6687 15.59 28.7447 15.3529 28.886 15.155C29.0274 14.9571 29.2271 14.8083 29.4572 14.7295L29.8982 14.5778C30.9237 14.2278 31.7298 13.4228 32.0798 12.3962L32.2303 11.9563C32.3089 11.726 32.4576 11.5261 32.6555 11.3844C32.8534 11.2428 33.0906 11.1666 33.334 11.1665Z" fill="white"/>
</g>
<defs>
<linearGradient id="paint0_linear_4801_3122" x1="24" y1="0" x2="24" y2="48" gradientUnits="userSpaceOnUse">
<stop stop-color="#93B3F4"/>
<stop offset="1" stop-color="#5060C5"/>
</linearGradient>
<clipPath id="clip0_4801_3122">
<rect width="28" height="28" fill="white" transform="translate(10 10)"/>
</clipPath>
</defs>
</svg>
