<svg width="120" height="120" viewBox="0 0 120 120" fill="none" xmlns="http://www.w3.org/2000/svg">
<g opacity="0.75">
<path d="M28 96C25.8 96 23.9173 95.2173 22.352 93.652C20.7867 92.0867 20.0027 90.2027 20 88V32C20 29.8 20.784 27.9173 22.352 26.352C23.92 24.7867 25.8027 24.0027 28 24H92C94.2 24 96.084 24.784 97.652 26.352C99.22 27.92 100.003 29.8027 100 32V88C100 90.2 99.2173 92.084 97.652 93.652C96.0867 95.22 94.2027 96.0027 92 96H28ZM48 80C49.1333 80 50.084 79.616 50.852 78.848C51.62 78.08 52.0027 77.1307 52 76C51.9973 74.8693 51.6133 73.92 50.848 73.152C50.0827 72.384 49.1333 72 48 72H36C34.8667 72 33.9173 72.384 33.152 73.152C32.3867 73.92 32.0027 74.8693 32 76C31.9973 77.1307 32.3813 78.0813 33.152 78.852C33.9227 79.6227 34.872 80.0053 36 80H48ZM70.2 60.7L67.3 57.8C66.5 57 65.5667 56.6173 64.5 56.652C63.4333 56.6867 62.5 57.1027 61.7 57.9C60.9667 58.7 60.5827 59.6333 60.548 60.7C60.5133 61.7667 60.8973 62.7 61.7 63.5L67.4 69.2C68.2 70 69.1333 70.4 70.2 70.4C71.2667 70.4 72.2 70 73 69.2L87.2 55C88 54.2 88.4 53.2667 88.4 52.2C88.4 51.1333 88 50.2 87.2 49.4C86.4 48.6 85.4507 48.2 84.352 48.2C83.2533 48.2 82.3027 48.6 81.5 49.4L70.2 60.7ZM48 64C49.1333 64 50.084 63.616 50.852 62.848C51.62 62.08 52.0027 61.1307 52 60C51.9973 58.8693 51.6133 57.92 50.848 57.152C50.0827 56.384 49.1333 56 48 56H36C34.8667 56 33.9173 56.384 33.152 57.152C32.3867 57.92 32.0027 58.8693 32 60C31.9973 61.1307 32.3813 62.0813 33.152 62.852C33.9227 63.6227 34.872 64.0053 36 64H48ZM48 48C49.1333 48 50.084 47.616 50.852 46.848C51.62 46.08 52.0027 45.1307 52 44C51.9973 42.8693 51.6133 41.92 50.848 41.152C50.0827 40.384 49.1333 40 48 40H36C34.8667 40 33.9173 40.384 33.152 41.152C32.3867 41.92 32.0027 42.8693 32 44C31.9973 45.1307 32.3813 46.0813 33.152 46.852C33.9227 47.6227 34.872 48.0053 36 48H48Z" fill="#20396B"/>
</g>
</svg>
