<svg width="120" height="120" viewBox="0 0 120 120" fill="none" xmlns="http://www.w3.org/2000/svg">
<g opacity="0.75">
<path d="M81.5 23.4482H24.1667C20.2086 23.4482 17 26.433 17 30.1149V36.7816C17 40.4635 20.2086 43.4482 24.1667 43.4482H81.5C85.458 43.4482 88.6667 40.4635 88.6667 36.7816V30.1149C88.6667 26.433 85.458 23.4482 81.5 23.4482Z" fill="url(#paint0_linear_4561_1429)"/>
<path d="M95.8333 50.115H38.5C34.542 50.115 31.3333 53.0998 31.3333 56.7817V63.4483C31.3333 67.1302 34.542 70.115 38.5 70.115H95.8333C99.7914 70.115 103 67.1302 103 63.4483V56.7817C103 53.0998 99.7914 50.115 95.8333 50.115Z" fill="url(#paint1_linear_4561_1429)"/>
<path d="M81.5 76.7815H24.1667C20.2086 76.7815 17 79.7663 17 83.4482V90.1148C17 93.7967 20.2086 96.7815 24.1667 96.7815H81.5C85.458 96.7815 88.6667 93.7967 88.6667 90.1148V83.4482C88.6667 79.7663 85.458 76.7815 81.5 76.7815Z" fill="url(#paint2_linear_4561_1429)"/>
</g>
<defs>
<linearGradient id="paint0_linear_4561_1429" x1="52.8333" y1="23.4482" x2="52.8333" y2="43.4482" gradientUnits="userSpaceOnUse">
<stop stop-color="#3C69C3"/>
<stop offset="1" stop-color="#A2AEFB"/>
</linearGradient>
<linearGradient id="paint1_linear_4561_1429" x1="67.1667" y1="50.115" x2="67.1667" y2="70.115" gradientUnits="userSpaceOnUse">
<stop stop-color="#3C69C3"/>
<stop offset="1" stop-color="#A2AEFB"/>
</linearGradient>
<linearGradient id="paint2_linear_4561_1429" x1="52.8333" y1="76.7815" x2="52.8333" y2="96.7815" gradientUnits="userSpaceOnUse">
<stop stop-color="#3C69C3"/>
<stop offset="1" stop-color="#A2AEFB"/>
</linearGradient>
</defs>
</svg>
