<?xml version="1.0" encoding="UTF-8"?>
<svg id="_레이어_1" data-name="레이어 1" xmlns="http://www.w3.org/2000/svg" viewBox="0 0 40 40">
  <defs>
    <style>
      .cls-1 {
        fill: none;
        stroke: #5060c5;
        stroke-miterlimit: 10;
        stroke-width: .09px;
      }

      .cls-2 {
        fill: #5060c5;
      }
    </style>
  </defs>
  <path class="cls-2" d="M18.86,35c-2.13,0-4.13-.94-5.48-2.58-1.25-1.52-1.81-3.44-1.56-5.4.14-1.1-.23-2.2-.99-2.99-.7-.73-1.65-1.13-2.65-1.13-.1,0-.2,0-.3.01-.12,0-.23.01-.35.01-1.27,0-2.46-.56-3.27-1.54-.72-.87-1.05-1.97-.94-3.1.11-1.13.65-2.14,1.52-2.86.76-.62,1.71-.97,2.69-.97,1.27,0,2.46.56,3.27,1.54.19.23.36.49.5.75.64,1.24,1.91,1.98,3.26,1.98.32,0,.65-.04.98-.13,1.67-.46,2.79-2.03,2.69-3.76-.18-3.03,1.12-5.96,3.49-7.84,1.63-1.29,3.67-2.01,5.75-2.01,2.85,0,5.5,1.28,7.27,3.51,1.54,1.94,2.23,4.36,1.94,6.82-.28,2.46-1.51,4.66-3.45,6.2-1.22.97-2.68,1.62-4.23,1.88-1.88.32-3.2,2.02-3.05,3.91.19,2.32-.77,4.59-2.55,6.06-1.27,1.05-2.87,1.62-4.51,1.62Z"/>
  <path class="cls-1" d="M18.86,35c-2.13,0-4.13-.94-5.48-2.58-1.25-1.52-1.81-3.44-1.56-5.4.14-1.1-.23-2.2-.99-2.99-.7-.73-1.65-1.13-2.65-1.13-.1,0-.2,0-.3.01-.12,0-.23.01-.35.01-1.27,0-2.46-.56-3.27-1.54-.72-.87-1.05-1.97-.94-3.1.11-1.13.65-2.14,1.52-2.86.76-.62,1.71-.97,2.69-.97,1.27,0,2.46.56,3.27,1.54.19.23.36.49.5.75.64,1.24,1.91,1.98,3.26,1.98.32,0,.65-.04.98-.13,1.67-.46,2.79-2.03,2.69-3.76-.18-3.03,1.12-5.96,3.49-7.84,1.63-1.29,3.67-2.01,5.75-2.01,2.85,0,5.5,1.28,7.27,3.51,1.54,1.94,2.23,4.36,1.94,6.82-.28,2.46-1.51,4.66-3.45,6.2-1.22.97-2.68,1.62-4.23,1.88-1.88.32-3.2,2.02-3.05,3.91.19,2.32-.77,4.59-2.55,6.06-1.27,1.05-2.87,1.62-4.51,1.62Z"/>
</svg>