<svg width="467" height="146" viewBox="0 0 467 146" fill="none" xmlns="http://www.w3.org/2000/svg">
<g filter="url(#filter0_d_4521_4776)">
<path d="M437 12C443.627 12 449 17.3726 449 24V88C449 94.6274 443.627 100 437 100H246.356L234.232 121C233.463 122.333 231.537 122.333 230.768 121L218.644 100H30C23.3726 100 18 94.6274 18 88V24C18 17.3726 23.3726 12 30 12H437Z" fill="white"/>
</g>
<path d="M59.2969 50V38.6875H63.1406C65.7969 38.6875 67 40.2656 67 42.2812C67 44.2812 65.7969 45.8906 63.1562 45.8906H60.7031V50H59.2969ZM60.7031 44.6406H63.0938C64.8906 44.6406 65.6094 43.625 65.6094 42.2812C65.6094 40.9219 64.8906 39.9375 63.0781 39.9375H60.7031V44.6406ZM72.4844 50H68.9688V38.6875H72.625C75.9219 38.6875 77.875 40.8125 77.875 44.3281C77.875 47.8594 75.9219 50 72.4844 50ZM70.375 48.75H72.3906C75.1719 48.75 76.5 47.0781 76.5 44.3281C76.5 41.5938 75.1719 39.9375 72.5312 39.9375H70.375V48.75ZM79.9375 50V38.6875H86.75V39.9375H81.3438V43.7188H86.2344V44.9531H81.3438V50H79.9375ZM89.8125 48.9531L88.5938 53.2031H87.4375L88.2969 48.9531H89.8125ZM96.3281 50V38.6875H100.172C102.828 38.6875 104.031 40.2656 104.031 42.2812C104.031 44.2812 102.828 45.8906 100.188 45.8906H97.7344V50H96.3281ZM97.7344 44.6406H100.125C101.922 44.6406 102.641 43.625 102.641 42.2812C102.641 40.9219 101.922 39.9375 100.109 39.9375H97.7344V44.6406ZM114.984 38.6875V50H113.641L107.516 41.1875H107.406V50H106V38.6875H107.359L113.484 47.5156H113.594V38.6875H114.984ZM125.203 42.2188C124.719 40.7656 123.609 39.8438 122 39.8438C120 39.8438 118.406 41.4219 118.406 44.3438C118.406 47.2656 120 48.8438 122.094 48.8438C124.008 48.8438 125.312 47.5625 125.344 45.5625H122.391V44.3281H126.719V45.5469C126.719 48.3594 124.781 50.1562 122.094 50.1562C119.078 50.1562 117.047 47.9219 117.047 44.3438C117.047 40.7656 119.094 38.5312 122 38.5312C124.391 38.5312 126.234 40.0312 126.656 42.2188H125.203ZM130.422 48.9531L129.203 53.2031H128.047L128.906 48.9531H130.422ZM141.266 38.6875H142.688V46.7656C142.688 48.9375 141.406 50.1562 139.438 50.1562C137.562 50.1562 136.203 49.0781 136.203 47.3281H137.594C137.594 48.2812 138.375 48.9062 139.438 48.9062C140.609 48.9062 141.266 48.1719 141.266 46.7656V38.6875ZM145.188 50V38.6875H149.031C151.688 38.6875 152.891 40.2656 152.891 42.2812C152.891 44.2812 151.688 45.8906 149.047 45.8906H146.594V50H145.188ZM146.594 44.6406H148.984C150.781 44.6406 151.5 43.625 151.5 42.2812C151.5 40.9219 150.781 39.9375 148.969 39.9375H146.594V44.6406ZM162.578 42.2188C162.094 40.7656 160.984 39.8438 159.375 39.8438C157.375 39.8438 155.781 41.4219 155.781 44.3438C155.781 47.2656 157.375 48.8438 159.469 48.8438C161.383 48.8438 162.688 47.5625 162.719 45.5625H159.766V44.3281H164.094V45.5469C164.094 48.3594 162.156 50.1562 159.469 50.1562C156.453 50.1562 154.422 47.9219 154.422 44.3438C154.422 40.7656 156.469 38.5312 159.375 38.5312C161.766 38.5312 163.609 40.0312 164.031 42.2188H162.578ZM177.406 38.9375V39.9375H169.547V38.9375H172.922V37.2656H174.141V38.9375H177.406ZM173.516 40.6562C175.375 40.6562 176.688 41.6719 176.688 43.2188C176.688 44.7812 175.375 45.7969 173.516 45.7969C171.641 45.7969 170.359 44.7812 170.375 43.2188C170.359 41.6719 171.641 40.6562 173.516 40.6562ZM173.516 41.5781C172.312 41.5938 171.516 42.25 171.516 43.2188C171.516 44.2031 172.312 44.8438 173.516 44.8438C174.719 44.8438 175.531 44.2031 175.547 43.2188C175.531 42.25 174.719 41.5938 173.516 41.5781ZM181.047 37.375V46.3594H179.812V44.4375H177.391V43.4219H179.812V41.7344H177.406V40.7188H179.812V37.375H181.047ZM176.469 46.5C179.359 46.5 181.125 47.3594 181.125 48.875C181.125 50.3594 179.359 51.2344 176.469 51.2344C173.547 51.2344 171.797 50.3594 171.797 48.875C171.797 47.3594 173.547 46.5 176.469 46.5ZM176.469 47.4531C174.359 47.4531 173.062 47.9688 173.062 48.875C173.062 49.75 174.359 50.2812 176.469 50.2812C178.547 50.2812 179.828 49.75 179.828 48.875C179.828 47.9688 178.547 47.4531 176.469 47.4531ZM188.281 39.3906C188.266 41.4219 189.734 43.2188 191.797 43.9375L191.172 44.9062C189.562 44.3203 188.289 43.1172 187.672 41.5781C187.055 43.2266 185.766 44.5234 184.141 45.1562L183.5 44.1875C185.578 43.4219 187.031 41.4844 187.031 39.3906V38.0625H188.281V39.3906ZM194.828 46.4375V51.2656H193.609V47.4531H185.484V46.4375H194.828ZM194.828 37.375V45.75H193.609V37.375H194.828ZM203.516 38.2812C206.422 38.2812 208.594 39.7969 208.594 42.0938C208.594 44.4062 206.422 45.9219 203.516 45.9062C200.609 45.9219 198.438 44.4062 198.438 42.0938C198.438 39.7969 200.609 38.2812 203.516 38.2812ZM203.516 39.2812C201.281 39.2656 199.594 40.4375 199.609 42.0938C199.594 43.7812 201.281 44.9062 203.516 44.9062C205.734 44.9062 207.406 43.7812 207.406 42.0938C207.406 40.4375 205.734 39.2656 203.516 39.2812ZM209.906 48.3906V49.4219H197.188V48.3906H209.906ZM223.734 48.5156V49.5469H211.016V48.5156H216.734V45.8906H212.609V41.6094H220.922V39.4219H212.578V38.4062H222.125V42.6094H213.828V44.875H222.453V45.8906H217.938V48.5156H223.734ZM241.516 44.5781V45.5938H228.859V44.5781H234.578V42.8438H235.781V44.5781H241.516ZM235.781 37.3438V38.7344H240.234V39.7344H235.859C235.961 41.2734 238.164 42.3359 240.766 42.5781L240.391 43.5312C238.086 43.2891 236.031 42.4609 235.188 41.0625C234.336 42.4609 232.273 43.2891 229.984 43.5312L229.594 42.5781C232.195 42.3359 234.398 41.2734 234.516 39.7344H230.172V38.7344H234.578V37.3438H235.781ZM235.188 46.6406C238.203 46.6406 239.953 47.4531 239.969 48.9375C239.953 50.4375 238.203 51.2344 235.188 51.2344C232.172 51.2344 230.391 50.4375 230.391 48.9375C230.391 47.4531 232.172 46.6406 235.188 46.6406ZM235.188 47.5625C232.938 47.5625 231.625 48.0625 231.641 48.9375C231.625 49.8125 232.938 50.2969 235.188 50.2812C237.406 50.2969 238.734 49.8125 238.734 48.9375C238.734 48.0625 237.406 47.5625 235.188 47.5625ZM251.203 38.6875V50H249.781V40.1562H249.719L246.969 41.9844V40.5625L249.781 38.6875H251.203ZM257.922 50.1562C255.406 50.1562 253.969 48.0469 253.969 44.3438C253.969 40.6719 255.438 38.5312 257.922 38.5312C260.406 38.5312 261.875 40.6719 261.875 44.3438C261.875 48.0469 260.422 50.1562 257.922 50.1562ZM257.922 48.9062C259.547 48.9062 260.5 47.2656 260.5 44.3438C260.5 41.4219 259.547 39.75 257.922 39.75C256.297 39.75 255.328 41.4219 255.328 44.3438C255.328 47.2656 256.281 48.9062 257.922 48.9062ZM263.938 38.6875H265.625L269.438 48H269.578L273.391 38.6875H275.078V50H273.75V41.4531H273.641L270.125 50H268.875L265.359 41.4531H265.266V50H263.938V38.6875ZM277.578 50V38.6875H281.547C283.922 38.6875 285.031 40.0156 285.031 41.6875C285.031 43.1406 284.172 43.7969 283.188 44.0625V44.1719C284.234 44.2344 285.484 45.2031 285.484 47C285.484 48.7031 284.359 50 281.688 50H277.578ZM281.672 48.75C283.438 48.75 284.125 47.9688 284.125 46.9844C284.125 45.8281 283.203 44.8594 281.75 44.8594H278.984V48.75H281.672ZM281.5 43.6406C282.719 43.6406 283.688 42.8906 283.688 41.7031C283.688 40.7188 283.031 39.9375 281.547 39.9375H278.984V43.6406H281.5ZM297.797 37.375V43.1094H299.906V44.1406H297.797V51.2656H296.562V37.375H297.797ZM291.016 38.8906C291 42.2031 290.25 45.4531 287.734 48.125L286.75 47.4219C288.852 45.2734 289.695 42.6875 289.859 39.9219H287.188V38.8906H291.016ZM294.828 38.8906C294.812 42.1875 294.328 46.0156 291.734 49.0469L290.734 48.3594C292.906 45.9062 293.562 42.8203 293.672 39.9219H291.453V38.8906H294.828ZM305.594 41.6406C305.594 44 307.312 46.3906 309.359 47.2812L308.672 48.25C307.047 47.5078 305.641 45.9062 305 43.9844C304.344 46.0234 302.945 47.7969 301.359 48.5938L300.625 47.625C302.609 46.6719 304.344 44.0469 304.359 41.6406V39.8281H301.078V38.8125H308.906V39.8281H305.594V41.6406ZM312.078 37.375V51.2656H310.844V37.375H312.078ZM323.203 40.3281C323.203 42.0625 324.703 43.5469 326.75 44.1406L326.188 45.1094C324.547 44.625 323.25 43.5938 322.625 42.2344C322.016 43.7031 320.727 44.8359 319.078 45.375L318.469 44.4219C320.531 43.7969 322 42.1719 322 40.3281V40.0156H318.859V39.0312H322V37.3125H323.234V39.0312H326.344V40.0156H323.203V40.3281ZM329.984 37.375V45.6094H328.75V42.2969H325.938V41.2812H328.75V37.375H329.984ZM329.984 46.3281V51.0781H320.906V46.3281H329.984ZM322.125 47.3281V50.0781H328.781V47.3281H322.125ZM345 45.625V46.625H339.203V51.2656H338V46.625H332.281V45.625H345ZM335.125 37.9531V39.875H342.125V37.9531H343.359V43.9375H333.906V37.9531H335.125ZM335.125 42.9375H342.125V40.875H335.125V42.9375ZM360.891 37.375V43.0312H363.141V44.0625H360.891V51.2656H359.672V37.375H360.891ZM357.297 38.875C357.297 42.8125 355.453 46.3906 350.922 48.625L350.234 47.6562C353.828 45.8672 355.781 43.1953 356.062 39.9062H350.875V38.875H357.297ZM375.188 41.2656V42.2812H365.703V37.6562H366.922V41.2656H375.188ZM376.641 43.9062V44.9219H363.969V43.9062H376.641ZM370.297 46.1719C373.281 46.1719 375.062 47.0781 375.078 48.6875C375.062 50.2969 373.281 51.2031 370.297 51.2031C367.297 51.2031 365.5 50.2969 365.5 48.6875C365.5 47.0781 367.297 46.1719 370.297 46.1719ZM370.297 47.1406C368.062 47.1562 366.734 47.7031 366.75 48.6875C366.734 49.6562 368.062 50.25 370.297 50.25C372.5 50.25 373.844 49.6562 373.844 48.6875C373.844 47.7031 372.5 47.1562 370.297 47.1406ZM384.734 39.7812V40.7812H377.766V39.7812H380.656V37.7969H381.875V39.7812H384.734ZM381.25 41.7188C383 41.7188 384.25 43.0312 384.266 44.875C384.25 46.7344 383 48.0625 381.25 48.0625C379.516 48.0625 378.266 46.7344 378.266 44.875C378.266 43.0312 379.516 41.7188 381.25 41.7188ZM381.25 42.75C380.156 42.7656 379.359 43.6562 379.359 44.875C379.359 46.1094 380.156 47 381.25 46.9844C382.359 47 383.172 46.1094 383.172 44.875C383.172 43.6562 382.359 42.7656 381.25 42.75ZM389.625 37.375V51.2656H388.453V44.25H386.609V50.5781H385.453V37.7188H386.609V43.2344H388.453V37.375H389.625ZM404.344 48.4531V49.4844H391.625V48.4531H394.781V44.7031C393.594 44.0859 392.875 43.0859 392.875 41.8281C392.875 39.6719 394.984 38.2656 397.953 38.25C400.922 38.2656 403.031 39.6719 403.031 41.8281C403.031 43.0625 402.336 44.0547 401.188 44.6719V48.4531H404.344ZM397.953 39.2656C395.672 39.25 394.062 40.2812 394.062 41.8281C394.062 43.375 395.672 44.4219 397.953 44.4219C400.219 44.4219 401.844 43.375 401.844 41.8281C401.844 40.2812 400.219 39.25 397.953 39.2656ZM395.984 48.4531H399.953V45.1406C399.352 45.3047 398.68 45.3906 397.953 45.3906C397.242 45.3906 396.578 45.3125 395.984 45.1562V48.4531ZM406.922 50.0938C406.375 50.0938 405.906 49.6406 405.922 49.0781C405.906 48.5312 406.375 48.0781 406.922 48.0781C407.469 48.0781 407.922 48.5312 407.922 49.0781C407.922 49.6406 407.469 50.0938 406.922 50.0938ZM189.57 69.6875C189.586 66.7344 190.383 64.2812 191.82 62.2031H193.008C191.945 63.75 190.961 66.9062 190.961 69.6875C190.961 72.4688 191.945 75.6406 193.008 77.1875H191.82C190.383 75.0938 189.586 72.6406 189.57 69.6875ZM198.367 74.1562C195.852 74.1562 194.414 72.0469 194.414 68.3438C194.414 64.6719 195.883 62.5312 198.367 62.5312C200.852 62.5312 202.32 64.6719 202.32 68.3438C202.32 72.0469 200.867 74.1562 198.367 74.1562ZM198.367 72.9062C199.992 72.9062 200.945 71.2656 200.945 68.3438C200.945 65.4219 199.992 63.75 198.367 63.75C196.742 63.75 195.773 65.4219 195.773 68.3438C195.773 71.2656 196.727 72.9062 198.367 72.9062ZM212.258 62.1562L208.602 75.7031H207.383L211.023 62.1562H212.258ZM221.57 62.6875V74H220.148V64.1562H220.086L217.336 65.9844V64.5625L220.148 62.6875H221.57ZM228.289 74.1562C225.773 74.1562 224.336 72.0469 224.336 68.3438C224.336 64.6719 225.805 62.5312 228.289 62.5312C230.773 62.5312 232.242 64.6719 232.242 68.3438C232.242 72.0469 230.789 74.1562 228.289 74.1562ZM228.289 72.9062C229.914 72.9062 230.867 71.2656 230.867 68.3438C230.867 65.4219 229.914 63.75 228.289 63.75C226.664 63.75 225.695 65.4219 225.695 68.3438C225.695 71.2656 226.648 72.9062 228.289 72.9062ZM234.68 74.0938C234.133 74.0938 233.664 73.6406 233.68 73.0781C233.664 72.5312 234.133 72.0781 234.68 72.0781C235.227 72.0781 235.68 72.5312 235.68 73.0781C235.68 73.6406 235.227 74.0938 234.68 74.0938ZM241.07 74.1562C238.555 74.1562 237.117 72.0469 237.117 68.3438C237.117 64.6719 238.586 62.5312 241.07 62.5312C243.555 62.5312 245.023 64.6719 245.023 68.3438C245.023 72.0469 243.57 74.1562 241.07 74.1562ZM241.07 72.9062C242.695 72.9062 243.648 71.2656 243.648 68.3438C243.648 65.4219 242.695 63.75 241.07 63.75C239.445 63.75 238.477 65.4219 238.477 68.3438C238.477 71.2656 239.43 72.9062 241.07 72.9062ZM251.102 62.6875H252.789L256.602 72H256.742L260.555 62.6875H262.242V74H260.914V65.4531H260.805L257.289 74H256.039L252.523 65.4531H252.43V74H251.102V62.6875ZM264.742 74V62.6875H268.711C271.086 62.6875 272.195 64.0156 272.195 65.6875C272.195 67.1406 271.336 67.7969 270.352 68.0625V68.1719C271.398 68.2344 272.648 69.2031 272.648 71C272.648 72.7031 271.523 74 268.852 74H264.742ZM268.836 72.75C270.602 72.75 271.289 71.9688 271.289 70.9844C271.289 69.8281 270.367 68.8594 268.914 68.8594H266.148V72.75H268.836ZM268.664 67.6406C269.883 67.6406 270.852 66.8906 270.852 65.7031C270.852 64.7188 270.195 63.9375 268.711 63.9375H266.148V67.6406H268.664ZM277.43 69.6875C277.414 72.6406 276.617 75.0938 275.18 77.1875H273.992C275.055 75.6406 276.039 72.4688 276.039 69.6875C276.039 66.9062 275.055 63.75 273.992 62.2031H275.18C276.617 64.2812 277.414 66.7344 277.43 69.6875Z" fill="black"/>
<defs>
<filter id="filter0_d_4521_4776" x="0" y="0" width="467" height="146" filterUnits="userSpaceOnUse" color-interpolation-filters="sRGB">
<feFlood flood-opacity="0" result="BackgroundImageFix"/>
<feColorMatrix in="SourceAlpha" type="matrix" values="0 0 0 0 0 0 0 0 0 0 0 0 0 0 0 0 0 0 127 0" result="hardAlpha"/>
<feMorphology radius="2" operator="erode" in="SourceAlpha" result="effect1_dropShadow_4521_4776"/>
<feOffset dy="6"/>
<feGaussianBlur stdDeviation="10"/>
<feComposite in2="hardAlpha" operator="out"/>
<feColorMatrix type="matrix" values="0 0 0 0 0 0 0 0 0 0 0 0 0 0 0 0 0 0 0.15 0"/>
<feBlend mode="normal" in2="BackgroundImageFix" result="effect1_dropShadow_4521_4776"/>
<feBlend mode="normal" in="SourceGraphic" in2="effect1_dropShadow_4521_4776" result="shape"/>
</filter>
</defs>
</svg>
