<svg width="18" height="18" viewBox="0 0 18 18" fill="none" xmlns="http://www.w3.org/2000/svg">
<path d="M13.7257 4.28218C13.6563 4.21265 13.5739 4.15749 13.4831 4.11986C13.3924 4.08222 13.2951 4.06285 13.1969 4.06285C13.0987 4.06285 13.0014 4.08222 12.9107 4.11986C12.82 4.15749 12.7375 4.21265 12.6682 4.28218L9.00066 7.94218L5.33316 4.27468C5.26372 4.20524 5.18129 4.15016 5.09056 4.11258C4.99984 4.07501 4.9026 4.05566 4.80441 4.05566C4.70621 4.05566 4.60897 4.07501 4.51825 4.11258C4.42753 4.15016 4.34509 4.20524 4.27566 4.27468C4.20622 4.34412 4.15114 4.42655 4.11356 4.51727C4.07598 4.60799 4.05664 4.70523 4.05664 4.80343C4.05664 4.90163 4.07598 4.99886 4.11356 5.08959C4.15114 5.18031 4.20622 5.26274 4.27566 5.33218L7.94316 8.99968L4.27566 12.6672C4.20622 12.7366 4.15114 12.819 4.11356 12.9098C4.07598 13.0005 4.05664 13.0977 4.05664 13.1959C4.05664 13.2941 4.07598 13.3914 4.11356 13.4821C4.15114 13.5728 4.20622 13.6552 4.27566 13.7247C4.34509 13.7941 4.42753 13.8492 4.51825 13.8868C4.60897 13.9244 4.70621 13.9437 4.80441 13.9437C4.9026 13.9437 4.99984 13.9244 5.09056 13.8868C5.18129 13.8492 5.26372 13.7941 5.33316 13.7247L9.00066 10.0572L12.6682 13.7247C12.7376 13.7941 12.82 13.8492 12.9107 13.8868C13.0015 13.9244 13.0987 13.9437 13.1969 13.9437C13.2951 13.9437 13.3923 13.9244 13.4831 13.8868C13.5738 13.8492 13.6562 13.7941 13.7257 13.7247C13.7951 13.6552 13.8502 13.5728 13.8878 13.4821C13.9253 13.3914 13.9447 13.2941 13.9447 13.1959C13.9447 13.0977 13.9253 13.0005 13.8878 12.9098C13.8502 12.819 13.7951 12.7366 13.7257 12.6672L10.0582 8.99968L13.7257 5.33218C14.0107 5.04718 14.0107 4.56718 13.7257 4.28218Z" fill="white"/>
</svg>
