<svg width="20" height="20" viewBox="0 0 20 20" fill="none" xmlns="http://www.w3.org/2000/svg">
<circle cx="10" cy="10" r="9.625" fill="white" stroke="#747775" stroke-width="0.75"/>
<mask id="mask0_5393_2906" style="mask-type:luminance" maskUnits="userSpaceOnUse" x="4" y="4" width="12" height="12">
<path d="M16 4H4V16H16V4Z" fill="white"/>
</mask>
<g mask="url(#mask0_5393_2906)">
<path d="M15.76 10.1362C15.76 9.71078 15.7218 9.3017 15.6509 8.90894H10V11.2299H13.2291C13.09 11.9799 12.6673 12.6153 12.0318 13.0408V14.5462H13.9709C15.1055 13.5017 15.76 11.9635 15.76 10.1362Z" fill="#4285F4"/>
<path d="M10 15.9999C11.62 15.9999 12.9782 15.4626 13.9709 14.5463L12.0318 13.0408C11.4946 13.4008 10.8073 13.6135 10 13.6135C8.43726 13.6135 7.11456 12.5581 6.64272 11.1399H4.63818V12.6944C5.62548 14.6554 7.65456 15.9999 10 15.9999Z" fill="#34A853"/>
<path d="M6.6427 11.14C6.5227 10.78 6.45454 10.3954 6.45454 9.99996C6.45454 9.6045 6.5227 9.21996 6.6427 8.85996V7.30542H4.63816C4.23184 8.11542 4 9.0318 4 9.99996C4 10.9681 4.23184 11.8845 4.63816 12.6945L6.6427 11.14Z" fill="#FBBC04"/>
<path d="M10 6.38638C10.8809 6.38638 11.6718 6.68908 12.2936 7.28362L14.0146 5.5627C12.9755 4.59454 11.6173 4 10 4C7.65456 4 5.62548 5.34454 4.63818 7.30546L6.64272 8.86C7.11456 7.44184 8.43726 6.38638 10 6.38638Z" fill="#E94235"/>
</g>
</svg>
