<svg width="120" height="120" viewBox="0 0 120 120" fill="none" xmlns="http://www.w3.org/2000/svg">
<g opacity="0.75">
<path d="M94.9122 21.9751L97.0515 24.1455C99.9992 27.14 99.5533 32.4483 96.0471 36.0019L51.9318 80.7605L37.6389 86.0651C35.8441 86.7347 34.0964 85.8665 33.7411 84.1338C33.6214 83.5053 33.6779 82.8553 33.9043 82.2577L39.2342 67.6313L83.2262 22.9941C86.7324 19.4405 91.9644 18.9807 94.9122 21.9751ZM50.0065 26.4263C50.4827 26.4263 50.9541 26.5215 51.394 26.7064C51.834 26.8912 52.2337 27.1622 52.5703 27.5038C52.907 27.8454 53.1741 28.2509 53.3563 28.6972C53.5385 29.1436 53.6323 29.6219 53.6323 30.105C53.6323 30.5881 53.5385 31.0665 53.3563 31.5128C53.1741 31.9591 52.907 32.3646 52.5703 32.7062C52.2337 33.0478 51.834 33.3188 51.394 33.5037C50.9541 33.6885 50.4827 33.7837 50.0065 33.7837H35.5033C33.58 33.7837 31.7355 34.5588 30.3756 35.9386C29.0156 37.3184 28.2516 39.1898 28.2516 41.1411V85.2853C28.2516 87.2366 29.0156 89.1079 30.3756 90.4877C31.7355 91.8675 33.58 92.6426 35.5033 92.6426H79.013C80.9363 92.6426 82.7808 91.8675 84.1407 90.4877C85.5006 89.1079 86.2646 87.2366 86.2646 85.2853V70.5705C86.2646 69.5949 86.6467 68.6592 87.3266 67.9693C88.0066 67.2794 88.9288 66.8918 89.8905 66.8918C90.8521 66.8918 91.7743 67.2794 92.4543 67.9693C93.1343 68.6592 93.5163 69.5949 93.5163 70.5705V85.2853C93.5163 89.1879 91.9883 92.9306 89.2684 95.6901C86.5485 98.4497 82.8595 100 79.013 100H35.5033C31.6568 100 27.9678 98.4497 25.2479 95.6901C22.528 92.9306 21 89.1879 21 85.2853V41.1411C21 37.2385 22.528 33.4957 25.2479 30.7362C27.9678 27.9766 31.6568 26.4263 35.5033 26.4263H50.0065Z" fill="#20396B"/>
</g>
</svg>
