<svg width="40" height="40" viewBox="0 0 40 40" fill="none" xmlns="http://www.w3.org/2000/svg">
<circle cx="20" cy="20" r="20" fill="white"/>
<g clip-path="url(#clip0_4521_1370)">
<path d="M20 10C17.2818 10 16.9431 10.0131 15.8793 10.0581C14.8112 10.1106 14.0887 10.2763 13.4512 10.5238C12.784 10.7757 12.1798 11.1701 11.6806 11.6794C11.1705 12.1779 10.776 12.7824 10.525 13.45C10.2775 14.0875 10.1118 14.81 10.0593 15.8781C10.0112 16.9425 10.0012 17.2806 10.0012 19.9987C10.0012 22.7169 10.0143 23.0556 10.0593 24.1194C10.1118 25.1844 10.2775 25.91 10.525 26.5475C10.7769 27.2147 11.1713 27.8189 11.6806 28.3181C12.1792 28.8282 12.7836 29.2227 13.4512 29.4738C14.0887 29.7181 14.8143 29.8869 15.8793 29.9394C16.9437 29.9875 17.2818 29.9975 20 29.9975C22.7181 29.9975 23.0568 29.9844 24.1206 29.9394C25.1856 29.8869 25.9112 29.7175 26.5487 29.4738C27.2159 29.2218 27.8201 28.8274 28.3193 28.3181C28.831 27.8209 29.2258 27.2161 29.475 26.5475C29.7193 25.91 29.8881 25.1844 29.9406 24.1194C29.9887 23.055 29.9987 22.7169 29.9987 19.9987C29.9987 17.2806 29.9856 16.9419 29.9406 15.8781C29.8881 14.8131 29.7187 14.0838 29.475 13.45C29.223 12.7828 28.8287 12.1786 28.3193 11.6794C27.8221 11.1677 27.2173 10.7729 26.5487 10.5238C25.9112 10.2763 25.1856 10.1106 24.1206 10.0581C23.0562 10.01 22.7181 10 20 10ZM20 11.8C22.6693 11.8 22.9881 11.8131 24.0431 11.8581C25.0162 11.9038 25.5462 12.0663 25.8981 12.2038C26.333 12.3645 26.7267 12.6201 27.0506 12.9519C27.3825 13.2738 27.6372 13.6668 27.7956 14.1012C27.9331 14.4531 28.0956 14.9831 28.1412 15.9562C28.1862 17.0113 28.1993 17.3306 28.1993 19.9994C28.1993 22.6681 28.1862 22.9875 28.1375 24.0425C28.085 25.0156 27.9225 25.5456 27.7856 25.8975C27.5962 26.3669 27.385 26.695 27.0362 27.05C26.7113 27.3799 26.3179 27.6342 25.8837 27.795C25.5362 27.9325 24.9987 28.095 24.0218 28.1406C22.9612 28.1856 22.6487 28.1987 19.9725 28.1987C17.2962 28.1987 16.9843 28.1856 15.9225 28.1369C14.9493 28.0844 14.4125 27.9219 14.0606 27.785C13.5856 27.5956 13.26 27.3844 12.9112 27.0356C12.5593 26.6838 12.3356 26.3487 12.1631 25.8831C12.0231 25.5356 11.8631 24.9981 11.8112 24.0212C11.7756 22.9731 11.7587 22.6481 11.7587 19.9844C11.7587 17.3219 11.7756 16.9963 11.8112 15.935C11.8631 14.9581 12.0231 14.4219 12.1631 14.0731C12.3356 13.5975 12.56 13.2725 12.9112 12.9206C13.2593 12.5725 13.5856 12.3475 14.0606 12.1712C14.4125 12.0344 14.9362 11.8719 15.9131 11.8231C16.9737 11.785 17.2862 11.7713 19.9587 11.7713L20 11.8ZM20 14.8669C19.3258 14.8666 18.6582 14.9992 18.0353 15.2571C17.4124 15.515 16.8465 15.8931 16.3698 16.3698C15.8931 16.8465 15.515 17.4125 15.2571 18.0353C14.9992 18.6582 14.8666 19.3258 14.8668 20C14.8666 20.6742 14.9992 21.3418 15.2571 21.9647C15.515 22.5875 15.8931 23.1535 16.3698 23.6302C16.8465 24.1069 17.4124 24.485 18.0353 24.7429C18.6582 25.0008 19.3258 25.1334 20 25.1331C20.6741 25.1334 21.3417 25.0008 21.9646 24.7429C22.5875 24.485 23.1535 24.1069 23.6302 23.6302C24.1069 23.1535 24.485 22.5875 24.7429 21.9647C25.0007 21.3418 25.1333 20.6742 25.1331 20C25.1333 19.3258 25.0007 18.6582 24.7429 18.0353C24.485 17.4125 24.1069 16.8465 23.6302 16.3698C23.1535 15.8931 22.5875 15.515 21.9646 15.2571C21.3417 14.9992 20.6741 14.8666 20 14.8669ZM20 23.3331C18.1575 23.3331 16.6668 21.8425 16.6668 20C16.6668 18.1575 18.1575 16.6669 20 16.6669C21.8425 16.6669 23.3331 18.1575 23.3331 20C23.3331 21.8425 21.8425 23.3331 20 23.3331ZM26.54 14.6619C26.5396 14.9804 26.4129 15.2858 26.1875 15.5109C25.9621 15.736 25.6566 15.8625 25.3381 15.8625C25.1806 15.8625 25.0246 15.8315 24.8791 15.7712C24.7336 15.7109 24.6014 15.6226 24.49 15.5112C24.3786 15.3998 24.2903 15.2676 24.23 15.1221C24.1697 14.9766 24.1387 14.8206 24.1387 14.6631C24.1387 14.5056 24.1697 14.3497 24.23 14.2041C24.2903 14.0586 24.3786 13.9264 24.49 13.815C24.6014 13.7037 24.7336 13.6153 24.8791 13.555C25.0246 13.4948 25.1806 13.4637 25.3381 13.4637C25.9987 13.4637 26.54 14.0013 26.54 14.6619Z" fill="#5060C5"/>
</g>
<defs>
<clipPath id="clip0_4521_1370">
<rect width="20" height="20" fill="white" transform="translate(10 10)"/>
</clipPath>
</defs>
</svg>
