<svg width="64" height="64" viewBox="0 0 64 64" fill="none" xmlns="http://www.w3.org/2000/svg">
<path opacity="0.1" fill-rule="evenodd" clip-rule="evenodd" d="M32 12C26.6957 12 21.6086 14.1071 17.8579 17.8579C14.1071 21.6086 12 26.6957 12 32C12 37.3043 14.1071 42.3914 17.8579 46.1421C21.6086 49.8929 26.6957 52 32 52C37.3043 52 42.3914 49.8929 46.1421 46.1421C49.8929 42.3914 52 37.3043 52 32C52 26.6957 49.8929 21.6086 46.1421 17.8579C42.3914 14.1071 37.3043 12 32 12ZM4 32C4 16.536 16.536 4 32 4C47.464 4 60 16.536 60 32C60 47.464 47.464 60 32 60C16.536 60 4 47.464 4 32Z" fill="#74777D"/>
<path fill-rule="evenodd" clip-rule="evenodd" d="M32.0007 12C26.8444 11.989 21.8852 13.9805 18.1687 17.5547C17.3987 18.2666 16.3801 18.6477 15.3319 18.6159C14.2838 18.5841 13.2901 18.142 12.5647 17.3848C11.8393 16.6276 11.4402 15.6158 11.4534 14.5673C11.4667 13.5188 11.8911 12.5174 12.6353 11.7787C17.8408 6.77773 24.7822 3.98948 32.0007 4.00003C33.0615 4.00003 34.079 4.42146 34.8291 5.1716C35.5792 5.92175 36.0007 6.93916 36.0007 8.00003C36.0007 9.0609 35.5792 10.0783 34.8291 10.8285C34.079 11.5786 33.0615 12 32.0007 12Z" fill="url(#paint0_linear_3242_2318)"/>
<defs>
<linearGradient id="paint0_linear_3242_2318" x1="23.7269" y1="4" x2="23.7269" y2="18.6177" gradientUnits="userSpaceOnUse">
<stop stop-color="#93B3F4"/>
<stop offset="1" stop-color="#5060C5"/>
</linearGradient>
</defs>
</svg>
