<svg width="260" height="65" viewBox="0 0 260 65" fill="none" xmlns="http://www.w3.org/2000/svg">
<path d="M98.2259 30.3984V40.3867H83.7742V50.1692H73.8726V28.6C73.8726 26.1734 74.3059 24.1042 75.1726 22.3817C76.2667 20.1934 77.9351 18.4059 80.1667 17.0192C82.3984 15.6325 84.7276 14.9392 87.1434 14.9392L98.2367 14.9609V24.9492C98.0092 24.9275 87.8042 24.9275 87.6959 24.9275C86.4392 24.9275 85.4751 25.3284 84.7926 26.1192C84.1101 26.9209 83.7742 28.0584 83.7742 29.5317V30.3984H98.2259Z" fill="black"/>
<path d="M122.114 14.9282C126.869 14.9282 130.943 16.6616 134.344 20.1174C137.746 23.5732 139.447 27.7116 139.447 32.5324C139.447 37.3532 137.735 41.5999 134.312 45.0232C130.889 48.4466 126.729 50.1582 121.821 50.1582C116.914 50.1582 112.797 48.4357 109.363 45.0016C105.918 41.5566 104.206 37.4074 104.206 32.5432C104.206 27.6791 105.939 23.4649 109.406 20.0524C112.873 16.6399 117.109 14.9391 122.124 14.9391L122.114 14.9282ZM121.821 24.8191C119.774 24.8191 118.029 25.5774 116.589 27.0832C115.148 28.5891 114.422 30.4091 114.422 32.5432C114.422 34.6774 115.148 36.4974 116.599 38.0032C118.051 39.5091 119.795 40.2674 121.821 40.2674C123.847 40.2674 125.634 39.5199 127.064 38.0141C128.494 36.5082 129.22 34.6882 129.22 32.5432C129.22 30.3982 128.505 28.5782 127.064 27.0724C125.624 25.5666 123.879 24.8191 121.821 24.8191Z" fill="black"/>
<path d="M145.416 15.1667H155.762V35.8259C155.762 37.4401 156.022 38.5126 156.542 39.0434C157.062 39.5742 158.08 39.8451 159.608 39.8451H169.78V49.9309H157.398C153.628 49.9309 150.692 48.8368 148.59 46.6376C146.489 44.4384 145.427 41.3834 145.427 37.4834V15.1667H145.416Z" fill="black"/>
<path d="M186.073 15.1667V49.9309H175.728V15.1667H186.073Z" fill="black"/>
<path d="M250.737 22.3058C248.083 18.5791 244.205 16.1958 239.828 15.4808C235.181 14.7225 231.075 15.9791 228.356 18.0266C226.471 19.4458 224.716 21.5041 224.716 21.5041L230.674 29.9325C230.674 29.9325 232.765 27.8633 233.827 27.235C235.224 26.39 236.741 25.9566 238.344 26.195C240.012 26.455 241.486 27.3758 242.493 28.795C243.501 30.2141 243.923 31.9583 243.685 33.7133C243.447 35.4575 242.569 36.9958 241.226 38.0575C239.882 39.1191 238.225 39.5525 236.567 39.2925C234.899 39.0325 233.426 38.1116 232.418 36.6925L221.942 21.9483C218.682 17.3658 213.677 14.95 208.617 14.95C205.172 14.95 201.695 16.0766 198.727 18.395C195.173 21.1791 192.866 25.2525 192.237 29.8566C191.609 34.4608 192.725 39.0541 195.368 42.7808C198.022 46.5075 201.901 48.9341 206.277 49.6058C210.383 50.2341 214.045 49.075 216.591 47.5366C219.126 46.0091 221.563 43.9616 221.563 43.9616L215.616 35.555C215.616 35.555 213.904 36.985 212.864 37.635C211.293 38.6208 209.376 39.3358 207.491 38.9891C205.606 38.6425 204.62 37.7325 203.612 36.3133C202.605 34.8941 202.182 33.15 202.421 31.395C202.659 29.6508 203.537 28.1016 204.88 27.0508C207.653 24.8841 211.607 25.48 213.698 28.405L224.174 43.1491C226.828 46.8758 230.707 49.3025 235.083 49.9741C239.482 50.6458 243.847 49.4866 247.39 46.7025C250.943 43.9183 253.251 39.845 253.879 35.2408C254.507 30.6366 253.392 26.0433 250.748 22.3166L250.737 22.3058Z" fill="black"/>
<path d="M30.6475 56.3333C27.2675 56.3333 24.1042 54.8383 21.9592 52.2383C19.9767 49.8333 19.0884 46.7891 19.4784 43.6799C19.695 41.9358 19.1209 40.1916 17.8967 38.9241C16.7917 37.7758 15.275 37.1366 13.7042 37.1366C13.5417 37.1366 13.3792 37.1366 13.2167 37.1583C13.0325 37.1691 12.8592 37.1799 12.675 37.1799C10.66 37.1799 8.77503 36.2916 7.4967 34.7424C5.14587 31.8933 5.5467 27.6466 8.4067 25.2958C9.6092 24.3099 11.1259 23.7574 12.675 23.7574C14.69 23.7574 16.575 24.6458 17.8534 26.1949C18.1567 26.5633 18.4275 26.9641 18.6442 27.3866C19.6625 29.3474 21.6775 30.5283 23.8117 30.5283C24.3317 30.5283 24.8517 30.4633 25.3609 30.3116C28.0042 29.5749 29.7809 27.0941 29.6184 24.3533C29.3259 19.5541 31.395 14.9066 35.1434 11.9274C37.7325 9.87993 40.9717 8.74243 44.265 8.74243C48.7825 8.74243 52.9859 10.7683 55.7809 14.3108C58.2184 17.3874 59.3125 21.2224 58.8684 25.1224C58.4242 29.0224 56.4742 32.5108 53.3975 34.9483C51.4692 36.4866 49.1509 37.5158 46.6917 37.9274C43.7125 38.4258 41.6217 41.1233 41.86 44.1349C41.9142 44.7958 41.9034 45.4674 41.8384 46.1391C41.5459 49.1291 40.1159 51.8374 37.7975 53.7441C35.7825 55.4016 33.2475 56.3224 30.6367 56.3224L30.6475 56.3333Z" fill="#5060C5"/>
</svg>
