<?xml version="1.0" encoding="UTF-8"?>
<svg id="_레이어_1" data-name="레이어 1" xmlns="http://www.w3.org/2000/svg" viewBox="0 0 80 20">
  <defs>
    <style>
      .cls-1 {
        fill: #5060c5;
      }

      .cls-2 {
        fill: none;
        stroke: #5060c5;
        stroke-miterlimit: 10;
        stroke-width: .04px;
      }
    </style>
  </defs>
  <g>
    <path d="M31.15,9.35v3.01h-4.36v2.95h-2.99v-6.51c0-.73.13-1.36.39-1.87.33-.66.83-1.2,1.51-1.62s1.37-.63,2.1-.63h3.35v3.02c-.07,0-3.15,0-3.18,0-.38,0-.67.12-.87.36s-.31.58-.31,1.03v.26h4.36Z"/>
    <path d="M38.36,4.5c1.49,0,2.76.54,3.82,1.62s1.59,2.37,1.59,3.88-.54,2.83-1.61,3.9-2.37,1.61-3.9,1.61-2.82-.54-3.9-1.61-1.61-2.37-1.61-3.9.54-2.84,1.62-3.9,2.41-1.6,3.98-1.6ZM38.27,7.58c-.64,0-1.19.24-1.64.71s-.68,1.04-.68,1.71.23,1.23.68,1.71,1,.71,1.63.71,1.19-.23,1.64-.7.67-1.04.67-1.71-.22-1.24-.67-1.71-.99-.7-1.64-.7Z"/>
    <path d="M45.39,4.76h3.12v6.23c0,.49.08.81.23.97s.46.24.93.24h3.07v3.04h-3.74c-1.14,0-2.02-.33-2.66-.99s-.95-1.58-.95-2.76v-6.73Z"/>
    <path d="M57.46,4.76v10.49h-3.12V4.76h3.12Z"/>
    <g>
      <path d="M67.25,14.54s.16-.09.51-.39c.45-.39.74-.72.74-.72l-1.99-2.69s-.26.31-.65.63c-.34.28-.56.41-.56.41l1.95,2.76Z"/>
      <path d="M70.6,5.43s-.16.09-.51.39c-.45.39-.74.72-.74.72l1.99,2.69s.26-.31.65-.63c.34-.28.56-.41.56-.41l-1.95-2.76Z"/>
      <path d="M64.32,4.41c1.61,0,3.19.77,4.23,2.22l3.32,4.68c.32.45.79.74,1.32.82.53.08,1.05-.06,1.48-.39s.7-.82.78-1.38c.08-.56-.06-1.11-.38-1.56-.32-.45-.79-.74-1.32-.82-.53-.08-1.05.06-1.48.39l-1.95-2.75c1.13-.88,2.51-1.25,3.9-1.04,1.39.21,2.62.98,3.46,2.17.84,1.18,1.19,2.64.99,4.1-.2,1.46-.93,2.75-2.06,3.64-1.13.88-2.51,1.25-3.9,1.04-1.39-.21-2.62-.98-3.46-2.17l-3.32-4.68c-.66-.93-1.92-1.12-2.8-.43-.43.33-.7.82-.78,1.38-.08.56.06,1.11.38,1.56.32.45.79.74,1.32.82.53.08,1.05-.06,1.48-.39l1.95,2.75c-1.12.88-2.51,1.26-3.9,1.04-1.39-.21-2.62-.98-3.46-2.17-.84-1.18-1.19-2.64-.99-4.1.2-1.46.93-2.75,2.06-3.64.94-.74,2.04-1.09,3.14-1.09Z"/>
    </g>
  </g>
  <g>
    <path class="cls-1" d="M8.72,17.18c-1.02,0-1.98-.45-2.62-1.24-.58-.7-.85-1.58-.76-2.49v-.1c.07-.52-.1-1.05-.47-1.43-.33-.35-.79-.54-1.27-.54-.05,0-.25.01-.31.01-.61,0-1.18-.27-1.56-.74-.34-.42-.51-.94-.45-1.48.05-.54.31-1.03.73-1.37.36-.3.82-.46,1.29-.46.61,0,1.18.27,1.56.74.09.11.17.23.24.36.31.59.92.94,1.56.94.16,0,.31-.02.47-.06.8-.22,1.33-.97,1.28-1.8-.02-.26,0-.52.02-.78.14-1.18.72-2.23,1.65-2.97.78-.62,1.76-.96,2.75-.96,1.36,0,2.63.61,3.48,1.68,1.52,1.92,1.2,4.71-.72,6.23-.58.46-1.28.77-2.03.9-.9.15-1.53.97-1.46,1.87.09,1.11-.37,2.2-1.22,2.9-.61.5-1.37.78-2.16.78Z"/>
    <path class="cls-2" d="M8.72,17.18c-1.02,0-1.98-.45-2.62-1.24-.58-.7-.85-1.58-.76-2.49v-.1c.07-.52-.1-1.05-.47-1.43-.33-.35-.79-.54-1.27-.54-.05,0-.25.01-.31.01-.61,0-1.18-.27-1.56-.74-.34-.42-.51-.94-.45-1.48.05-.54.31-1.03.73-1.37.36-.3.82-.46,1.29-.46.61,0,1.18.27,1.56.74.09.11.17.23.24.36.31.59.92.94,1.56.94.16,0,.31-.02.47-.06.8-.22,1.33-.97,1.28-1.8-.02-.26,0-.52.02-.78.14-1.18.72-2.23,1.65-2.97.78-.62,1.76-.96,2.75-.96,1.36,0,2.63.61,3.48,1.68,1.52,1.92,1.2,4.71-.72,6.23-.58.46-1.28.77-2.03.9-.9.15-1.53.97-1.46,1.87.09,1.11-.37,2.2-1.22,2.9-.61.5-1.37.78-2.16.78Z"/>
  </g>
</svg>