<svg width="1200" height="600" viewBox="0 0 1200 600" fill="none" xmlns="http://www.w3.org/2000/svg">
<rect width="1200" height="600" fill="url(#paint0_linear_321_10)"/>
<path d="M263.119 386.98V396.52H268.49V400.43H263.119V409.668H258.307V386.98H263.119ZM250.443 410.398C258.393 410.398 263.42 413.234 263.463 418.047C263.42 422.945 258.393 425.781 250.443 425.781C242.408 425.781 237.295 422.945 237.295 418.047C237.295 413.234 242.408 410.398 250.443 410.398ZM250.443 414.223C245.115 414.223 241.979 415.555 242.021 418.047C241.979 420.582 245.115 421.957 250.443 421.957C255.686 421.957 258.822 420.582 258.822 418.047C258.822 415.555 255.686 414.223 250.443 414.223ZM251.346 389.73V393.598H238.67V403.352C246.104 403.33 250.25 403.115 254.826 402.148L255.299 405.973C250.271 407.047 245.674 407.219 237.08 407.219H233.943V389.73H251.346ZM302.822 387.023V415.383H298.01V387.023H302.822ZM303.896 421.184V425.051H277.127V412.676H281.939V421.184H303.896ZM284.947 392.953C284.947 398.367 288.127 403.48 294.271 405.543L291.822 409.324C287.396 407.777 284.238 404.684 282.541 400.73C280.779 404.963 277.578 408.357 273.002 410.012L270.51 406.23C276.826 403.996 280.006 398.539 280.006 392.953V389.172H284.947V392.953ZM321.084 389.688C327.229 389.645 331.74 393.555 331.783 399.055C331.74 404.598 327.229 408.465 321.084 408.465C314.982 408.465 310.428 404.598 310.428 399.055C310.428 393.555 314.982 389.645 321.084 389.688ZM321.084 393.812C317.689 393.812 315.154 395.832 315.154 399.055C315.154 402.32 317.689 404.297 321.084 404.297C324.521 404.297 327.1 402.32 327.1 399.055C327.1 395.832 324.521 393.812 321.084 393.812ZM340.85 386.98V425.867H336.08V386.98H340.85ZM308.666 413.836C315.67 413.836 325.381 413.75 333.76 412.547L334.146 416.027C325.424 417.703 316.1 417.746 309.268 417.746L308.666 413.836ZM392.455 417.188V421.098H356.963V417.188H372.26V408.723H360.873V389.988H388.373V408.723H376.986V417.188H392.455ZM365.557 393.812V404.984H383.646V393.812H365.557ZM430.439 406.316V410.141H394.99V406.316H430.439ZM426.486 398.926V402.793H399.33V388.527H426.143V392.309H404.1V398.926H426.486ZM426.744 421.141V425.008H399.373V413.535H404.057V421.141H426.744ZM475.986 387.023V409.711H471.217V405.414H461.979V401.547H471.217V397.379H462.365C459.895 403.566 454.244 407.885 445.779 410.227L443.846 406.445C452.934 403.975 457.768 399.377 458.541 393.598H445.908V389.73H463.74C463.74 391.084 463.633 392.373 463.396 393.598H471.217V387.023H475.986ZM463.139 410.141C471.002 410.141 476.244 413.105 476.244 417.875C476.244 422.645 471.002 425.609 463.139 425.609C455.189 425.609 449.947 422.645 449.947 417.875C449.947 413.105 455.189 410.141 463.139 410.141ZM463.139 413.879C457.896 413.879 454.717 415.297 454.717 417.875C454.717 420.41 457.896 421.828 463.139 421.828C468.252 421.828 471.475 420.41 471.475 417.875C471.475 415.297 468.252 413.879 463.139 413.879ZM514.014 386.98V410.484H509.244V402.449H503.701V398.496H509.244V386.98H514.014ZM514.014 412.246V425.352H488.189V412.246H514.014ZM492.959 416.027V421.484H509.33V416.027H492.959ZM504.346 390.59V394.457H481.572V390.59H490.596V386.68H495.322V390.59H504.346ZM492.959 395.961C498.373 395.961 502.154 398.84 502.197 402.922C502.154 407.133 498.373 409.883 492.959 409.883C487.588 409.883 483.764 407.133 483.764 402.922C483.764 398.84 487.588 395.961 492.959 395.961ZM492.959 399.57C490.166 399.57 488.318 400.859 488.318 402.922C488.318 405.07 490.166 406.316 492.959 406.316C495.752 406.316 497.6 405.07 497.6 402.922C497.6 400.859 495.752 399.57 492.959 399.57ZM537.174 387.582C546.025 387.582 551.139 389.945 551.182 394.242C551.139 398.582 546.025 400.902 537.174 400.945C528.322 400.902 523.166 398.582 523.166 394.242C523.166 389.945 528.322 387.582 537.174 387.582ZM537.174 391.105C531.244 391.105 528.15 392.223 528.193 394.242C528.15 396.391 531.244 397.379 537.174 397.379C543.189 397.379 546.24 396.391 546.24 394.242C546.24 392.223 543.189 391.105 537.174 391.105ZM554.92 403.008V406.832H519.514V403.008H554.92ZM550.494 409.453V418.949H528.408V421.828H551.568V425.48H523.725V415.555H545.811V412.977H523.682V409.453H550.494ZM603.432 408.98V412.848H587.963V425.781H583.236V412.848H567.939V408.98H603.432ZM599.092 388.957V404.426H572.279V388.957H599.092ZM576.963 392.781V400.688H594.322V392.781H576.963ZM636.646 387.023V399.227H642.061V403.18H636.646V416.027H631.877V387.023H636.646ZM629.084 391.32V395.145H606.053V391.32H615.205V386.98H619.975V391.32H629.084ZM617.568 396.734C623.154 396.734 627.021 399.699 627.064 404.168C627.021 408.594 623.154 411.516 617.568 411.516C611.939 411.516 608.029 408.594 608.029 404.168C608.029 399.699 611.939 396.734 617.568 396.734ZM617.568 400.43C614.604 400.43 612.67 401.805 612.67 404.168C612.67 406.488 614.604 407.863 617.568 407.82C620.533 407.863 622.51 406.488 622.51 404.168C622.51 401.805 620.533 400.43 617.568 400.43ZM638.193 421.184V425.051H611.768V413.75H616.537V421.184H638.193ZM674.674 387.023V399.227H680.088V403.18H674.674V416.027H669.904V387.023H674.674ZM667.111 391.32V395.145H644.08V391.32H653.232V386.98H658.002V391.32H667.111ZM655.596 396.734C661.182 396.734 665.049 399.699 665.092 404.168C665.049 408.594 661.182 411.516 655.596 411.516C649.967 411.516 646.057 408.594 646.057 404.168C646.057 399.699 649.967 396.734 655.596 396.734ZM655.596 400.43C652.631 400.43 650.697 401.805 650.697 404.168C650.697 406.488 652.631 407.863 655.596 407.82C658.561 407.863 660.537 406.488 660.537 404.168C660.537 401.805 658.561 400.43 655.596 400.43ZM676.221 421.184V425.051H649.795V413.75H654.564V421.184H676.221ZM715.838 391.062V394.801H707.803C707.889 398.152 710.961 401.139 716.697 402.277L714.807 405.973C710.359 405.049 707.201 402.965 705.482 400.172C703.785 403.223 700.605 405.521 696.029 406.488L694.01 402.793C699.832 401.654 702.926 398.367 702.99 394.801H694.998V391.062H703.033V387.066H707.803V391.062H715.838ZM724.99 387.023V425.781H720.264V387.023H724.99ZM692.549 408.508C699.768 408.508 709.436 408.465 717.729 407.434L718.072 410.871C714.721 411.451 711.24 411.816 707.846 412.031V424.621H703.033V412.289C699.488 412.439 696.115 412.461 693.15 412.461L692.549 408.508ZM741.318 388.699C746.346 388.656 750.299 391.557 751.287 395.832H758.291V386.98H763.061V407.82H758.291V399.699H751.33C750.363 404.061 746.367 407.004 741.318 407.004C735.346 407.004 731.049 403.18 731.049 397.809C731.049 392.523 735.346 388.656 741.318 388.699ZM741.318 392.695C737.967 392.695 735.604 394.672 735.604 397.809C735.604 400.902 737.967 402.965 741.318 402.965C744.584 402.965 746.904 400.902 746.947 397.809C746.904 394.672 744.584 392.695 741.318 392.695ZM742.178 409.625V413.75H758.291V409.625H763.061V425.352H737.451V409.625H742.178ZM742.178 421.484H758.291V417.445H742.178V421.484ZM811.529 387.023V409.711H806.76V405.414H797.521V401.547H806.76V397.379H797.908C795.438 403.566 789.787 407.885 781.322 410.227L779.389 406.445C788.477 403.975 793.311 399.377 794.084 393.598H781.451V389.73H799.283C799.283 391.084 799.176 392.373 798.939 393.598H806.76V387.023H811.529ZM798.682 410.141C806.545 410.141 811.787 413.105 811.787 417.875C811.787 422.645 806.545 425.609 798.682 425.609C790.732 425.609 785.49 422.645 785.49 417.875C785.49 413.105 790.732 410.141 798.682 410.141ZM798.682 413.879C793.439 413.879 790.26 415.297 790.26 417.875C790.26 420.41 793.439 421.828 798.682 421.828C803.795 421.828 807.018 420.41 807.018 417.875C807.018 415.297 803.795 413.879 798.682 413.879ZM828.975 394.672C828.975 399.141 831.209 403.094 836.15 404.984L833.658 408.68C830.328 407.369 828.072 405.006 826.783 402.062C825.365 405.414 822.938 408.186 819.307 409.668L816.729 405.973C821.971 403.824 824.377 399.27 824.377 394.672V393.812H817.846V389.988H835.248V393.812H828.975V394.672ZM850.244 387.023V410.613H845.689V400.645H841.951V409.41H837.439V387.754H841.951V396.734H845.689V387.023H850.244ZM837.139 411.301C845.26 411.344 850.416 414.008 850.459 418.52C850.416 423.031 845.26 425.781 837.139 425.781C828.932 425.781 823.818 423.031 823.818 418.52C823.818 414.008 828.932 411.344 837.139 411.301ZM837.139 414.953C831.768 414.953 828.588 416.242 828.588 418.52C828.588 420.883 831.768 422.086 837.139 422.086C842.467 422.086 845.646 420.883 845.646 418.52C845.646 416.242 842.467 414.953 837.139 414.953ZM873.619 389.301V400.988H861.373V405.758C867.604 405.779 871.191 405.586 875.295 404.812L875.768 408.68C871.127 409.453 867.088 409.582 859.482 409.582H856.646V397.422H868.85V393.082H856.561V389.301H873.619ZM887.584 387.023V410.914H882.814V404.512H875.939V400.688H882.814V396.348H875.939V392.523H882.814V387.023H887.584ZM887.584 412.762V425.824H882.814V416.586H861.029V412.762H887.584ZM910.744 389.172C918.951 389.172 925.225 393.512 925.225 400.129C925.225 406.832 918.951 411.172 910.744 411.172C902.58 411.172 896.307 406.832 896.35 400.129C896.307 393.512 902.58 389.172 910.744 389.172ZM910.744 393.039C905.115 392.996 900.947 395.832 900.947 400.129C900.947 404.512 905.115 407.262 910.744 407.262C916.416 407.262 920.541 404.512 920.541 400.129C920.541 395.832 916.416 392.996 910.744 393.039ZM928.576 417.016V420.926H893.084V417.016H928.576ZM966.604 417.359V421.312H931.111V417.359H946.408V411.043H935.322V398.324H957.666V393.512H935.236V389.645H962.393V402.105H940.092V407.133H963.295V411.043H951.135V417.359H966.604Z" fill="#757E86"/>
<path d="M521.119 275.812V298.093H488.881V319.916H466.792V271.8C466.792 266.387 467.759 261.771 469.692 257.928C472.133 253.047 475.855 249.059 480.833 245.966C485.812 242.873 491.007 241.326 496.397 241.326L521.143 241.374V263.656C520.636 263.608 497.871 263.608 497.629 263.608C494.826 263.608 492.675 264.502 491.152 266.266C489.63 268.054 488.881 270.592 488.881 273.878V275.812H521.119Z" fill="black"/>
<path d="M574.407 241.302C585.016 241.302 594.103 245.168 601.691 252.877C609.279 260.587 613.073 269.818 613.073 280.572C613.073 291.327 609.255 300.8 601.618 308.437C593.982 316.073 584.702 319.892 573.754 319.892C562.807 319.892 553.623 316.049 545.963 308.388C538.278 300.703 534.459 291.448 534.459 280.597C534.459 269.746 538.326 260.345 546.059 252.733C553.793 245.12 563.242 241.326 574.431 241.326L574.407 241.302ZM573.754 263.366C569.187 263.366 565.296 265.057 562.082 268.417C558.868 271.776 557.248 275.836 557.248 280.597C557.248 285.358 558.868 289.418 562.106 292.777C565.344 296.136 569.235 297.827 573.754 297.827C578.273 297.827 582.261 296.16 585.451 292.801C588.641 289.442 590.26 285.382 590.26 280.597C590.26 275.812 588.665 271.752 585.451 268.392C582.237 265.033 578.346 263.366 573.754 263.366Z" fill="black"/>
<path d="M626.389 241.833H649.468V287.919C649.468 291.52 650.048 293.912 651.208 295.097C652.368 296.281 654.64 296.885 658.048 296.885H680.74V319.384H653.117C644.707 319.384 638.158 316.943 633.47 312.037C628.782 307.132 626.413 300.317 626.413 291.617V241.833H626.389Z" fill="black"/>
<path d="M717.087 241.833V319.384H694.008V241.833H717.087Z" fill="black"/>
<path d="M861.337 257.759C855.417 249.446 846.765 244.129 837.002 242.534C826.634 240.843 817.475 243.646 811.409 248.213C807.204 251.379 803.289 255.971 803.289 255.971L816.581 274.773C816.581 274.773 821.245 270.157 823.613 268.755C826.731 266.87 830.114 265.903 833.691 266.435C837.412 267.015 840.699 269.069 842.947 272.235C845.194 275.401 846.137 279.292 845.605 283.207C845.073 287.098 843.116 290.529 840.119 292.898C837.122 295.266 833.425 296.233 829.727 295.653C826.006 295.073 822.719 293.018 820.472 289.853L797.102 256.962C789.828 246.739 778.663 241.35 767.377 241.35C759.692 241.35 751.935 243.863 745.313 249.035C737.387 255.246 732.239 264.333 730.837 274.603C729.436 284.874 731.925 295.121 737.822 303.434C743.742 311.748 752.394 317.161 762.157 318.659C771.317 320.061 779.485 317.475 785.164 314.043C790.819 310.636 796.257 306.068 796.257 306.068L782.989 287.315C782.989 287.315 779.171 290.505 776.851 291.955C773.347 294.154 769.069 295.749 764.864 294.976C760.659 294.203 758.46 292.173 756.212 289.007C753.965 285.841 753.022 281.95 753.554 278.035C754.086 274.144 756.043 270.688 759.04 268.344C765.227 263.511 774.047 264.84 778.712 271.365L802.081 304.256C808.002 312.569 816.653 317.983 826.417 319.481C836.228 320.979 845.967 318.393 853.87 312.183C861.797 305.972 866.944 296.885 868.346 286.614C869.747 276.343 867.258 266.097 861.362 257.783L861.337 257.759Z" fill="black"/>
<path d="M370.367 333.667C362.827 333.667 355.771 330.332 350.986 324.532C346.563 319.167 344.582 312.376 345.452 305.44C345.935 301.549 344.654 297.658 341.923 294.831C339.458 292.269 336.075 290.843 332.571 290.843C332.208 290.843 331.846 290.843 331.483 290.892C331.072 290.916 330.686 290.94 330.275 290.94C325.78 290.94 321.575 288.958 318.723 285.502C313.479 279.147 314.373 269.673 320.753 264.429C323.436 262.23 326.819 260.997 330.275 260.997C334.77 260.997 338.975 262.979 341.827 266.435C342.503 267.257 343.107 268.151 343.591 269.093C345.862 273.467 350.357 276.102 355.118 276.102C356.278 276.102 357.438 275.957 358.574 275.618C364.471 273.975 368.434 268.441 368.072 262.327C367.419 251.621 372.035 241.253 380.397 234.608C386.172 230.04 393.398 227.503 400.745 227.503C410.822 227.503 420.199 232.022 426.434 239.924C431.872 246.788 434.312 255.343 433.322 264.042C432.331 272.742 427.981 280.524 421.117 285.962C416.816 289.393 411.644 291.689 406.158 292.607C399.512 293.719 394.848 299.737 395.38 306.455C395.501 307.929 395.477 309.427 395.332 310.926C394.679 317.596 391.489 323.637 386.317 327.891C381.822 331.588 376.167 333.642 370.343 333.642L370.367 333.667Z" fill="#5060C5"/>
<defs>
<linearGradient id="paint0_linear_321_10" x1="600" y1="0" x2="600" y2="600" gradientUnits="userSpaceOnUse">
<stop stop-color="white"/>
<stop offset="1" stop-color="#D6E0FF"/>
</linearGradient>
</defs>
</svg>
