<svg width="1200" height="630" viewBox="0 0 1200 630" fill="none" xmlns="http://www.w3.org/2000/svg">
<rect width="1200" height="630" fill="url(#paint0_linear_133_173)"/>
<path d="M263.119 406.98V416.52H268.49V420.43H263.119V429.668H258.307V406.98H263.119ZM250.443 430.398C258.393 430.398 263.42 433.234 263.463 438.047C263.42 442.945 258.393 445.781 250.443 445.781C242.408 445.781 237.295 442.945 237.295 438.047C237.295 433.234 242.408 430.398 250.443 430.398ZM250.443 434.223C245.115 434.223 241.979 435.555 242.021 438.047C241.979 440.582 245.115 441.957 250.443 441.957C255.686 441.957 258.822 440.582 258.822 438.047C258.822 435.555 255.686 434.223 250.443 434.223ZM251.346 409.73V413.598H238.67V423.352C246.104 423.33 250.25 423.115 254.826 422.148L255.299 425.973C250.271 427.047 245.674 427.219 237.08 427.219H233.943V409.73H251.346ZM302.822 407.023V435.383H298.01V407.023H302.822ZM303.896 441.184V445.051H277.127V432.676H281.939V441.184H303.896ZM284.947 412.953C284.947 418.367 288.127 423.48 294.271 425.543L291.822 429.324C287.396 427.777 284.238 424.684 282.541 420.73C280.779 424.963 277.578 428.357 273.002 430.012L270.51 426.23C276.826 423.996 280.006 418.539 280.006 412.953V409.172H284.947V412.953ZM321.084 409.688C327.229 409.645 331.74 413.555 331.783 419.055C331.74 424.598 327.229 428.465 321.084 428.465C314.982 428.465 310.428 424.598 310.428 419.055C310.428 413.555 314.982 409.645 321.084 409.688ZM321.084 413.812C317.689 413.812 315.154 415.832 315.154 419.055C315.154 422.32 317.689 424.297 321.084 424.297C324.521 424.297 327.1 422.32 327.1 419.055C327.1 415.832 324.521 413.812 321.084 413.812ZM340.85 406.98V445.867H336.08V406.98H340.85ZM308.666 433.836C315.67 433.836 325.381 433.75 333.76 432.547L334.146 436.027C325.424 437.703 316.1 437.746 309.268 437.746L308.666 433.836ZM392.455 437.188V441.098H356.963V437.188H372.26V428.723H360.873V409.988H388.373V428.723H376.986V437.188H392.455ZM365.557 413.812V424.984H383.646V413.812H365.557ZM430.439 426.316V430.141H394.99V426.316H430.439ZM426.486 418.926V422.793H399.33V408.527H426.143V412.309H404.1V418.926H426.486ZM426.744 441.141V445.008H399.373V433.535H404.057V441.141H426.744ZM475.986 407.023V429.711H471.217V425.414H461.979V421.547H471.217V417.379H462.365C459.895 423.566 454.244 427.885 445.779 430.227L443.846 426.445C452.934 423.975 457.768 419.377 458.541 413.598H445.908V409.73H463.74C463.74 411.084 463.633 412.373 463.396 413.598H471.217V407.023H475.986ZM463.139 430.141C471.002 430.141 476.244 433.105 476.244 437.875C476.244 442.645 471.002 445.609 463.139 445.609C455.189 445.609 449.947 442.645 449.947 437.875C449.947 433.105 455.189 430.141 463.139 430.141ZM463.139 433.879C457.896 433.879 454.717 435.297 454.717 437.875C454.717 440.41 457.896 441.828 463.139 441.828C468.252 441.828 471.475 440.41 471.475 437.875C471.475 435.297 468.252 433.879 463.139 433.879ZM514.014 406.98V430.484H509.244V422.449H503.701V418.496H509.244V406.98H514.014ZM514.014 432.246V445.352H488.189V432.246H514.014ZM492.959 436.027V441.484H509.33V436.027H492.959ZM504.346 410.59V414.457H481.572V410.59H490.596V406.68H495.322V410.59H504.346ZM492.959 415.961C498.373 415.961 502.154 418.84 502.197 422.922C502.154 427.133 498.373 429.883 492.959 429.883C487.588 429.883 483.764 427.133 483.764 422.922C483.764 418.84 487.588 415.961 492.959 415.961ZM492.959 419.57C490.166 419.57 488.318 420.859 488.318 422.922C488.318 425.07 490.166 426.316 492.959 426.316C495.752 426.316 497.6 425.07 497.6 422.922C497.6 420.859 495.752 419.57 492.959 419.57ZM537.174 407.582C546.025 407.582 551.139 409.945 551.182 414.242C551.139 418.582 546.025 420.902 537.174 420.945C528.322 420.902 523.166 418.582 523.166 414.242C523.166 409.945 528.322 407.582 537.174 407.582ZM537.174 411.105C531.244 411.105 528.15 412.223 528.193 414.242C528.15 416.391 531.244 417.379 537.174 417.379C543.189 417.379 546.24 416.391 546.24 414.242C546.24 412.223 543.189 411.105 537.174 411.105ZM554.92 423.008V426.832H519.514V423.008H554.92ZM550.494 429.453V438.949H528.408V441.828H551.568V445.48H523.725V435.555H545.811V432.977H523.682V429.453H550.494ZM603.432 428.98V432.848H587.963V445.781H583.236V432.848H567.939V428.98H603.432ZM599.092 408.957V424.426H572.279V408.957H599.092ZM576.963 412.781V420.688H594.322V412.781H576.963ZM636.646 407.023V419.227H642.061V423.18H636.646V436.027H631.877V407.023H636.646ZM629.084 411.32V415.145H606.053V411.32H615.205V406.98H619.975V411.32H629.084ZM617.568 416.734C623.154 416.734 627.021 419.699 627.064 424.168C627.021 428.594 623.154 431.516 617.568 431.516C611.939 431.516 608.029 428.594 608.029 424.168C608.029 419.699 611.939 416.734 617.568 416.734ZM617.568 420.43C614.604 420.43 612.67 421.805 612.67 424.168C612.67 426.488 614.604 427.863 617.568 427.82C620.533 427.863 622.51 426.488 622.51 424.168C622.51 421.805 620.533 420.43 617.568 420.43ZM638.193 441.184V445.051H611.768V433.75H616.537V441.184H638.193ZM674.674 407.023V419.227H680.088V423.18H674.674V436.027H669.904V407.023H674.674ZM667.111 411.32V415.145H644.08V411.32H653.232V406.98H658.002V411.32H667.111ZM655.596 416.734C661.182 416.734 665.049 419.699 665.092 424.168C665.049 428.594 661.182 431.516 655.596 431.516C649.967 431.516 646.057 428.594 646.057 424.168C646.057 419.699 649.967 416.734 655.596 416.734ZM655.596 420.43C652.631 420.43 650.697 421.805 650.697 424.168C650.697 426.488 652.631 427.863 655.596 427.82C658.561 427.863 660.537 426.488 660.537 424.168C660.537 421.805 658.561 420.43 655.596 420.43ZM676.221 441.184V445.051H649.795V433.75H654.564V441.184H676.221ZM715.838 411.062V414.801H707.803C707.889 418.152 710.961 421.139 716.697 422.277L714.807 425.973C710.359 425.049 707.201 422.965 705.482 420.172C703.785 423.223 700.605 425.521 696.029 426.488L694.01 422.793C699.832 421.654 702.926 418.367 702.99 414.801H694.998V411.062H703.033V407.066H707.803V411.062H715.838ZM724.99 407.023V445.781H720.264V407.023H724.99ZM692.549 428.508C699.768 428.508 709.436 428.465 717.729 427.434L718.072 430.871C714.721 431.451 711.24 431.816 707.846 432.031V444.621H703.033V432.289C699.488 432.439 696.115 432.461 693.15 432.461L692.549 428.508ZM741.318 408.699C746.346 408.656 750.299 411.557 751.287 415.832H758.291V406.98H763.061V427.82H758.291V419.699H751.33C750.363 424.061 746.367 427.004 741.318 427.004C735.346 427.004 731.049 423.18 731.049 417.809C731.049 412.523 735.346 408.656 741.318 408.699ZM741.318 412.695C737.967 412.695 735.604 414.672 735.604 417.809C735.604 420.902 737.967 422.965 741.318 422.965C744.584 422.965 746.904 420.902 746.947 417.809C746.904 414.672 744.584 412.695 741.318 412.695ZM742.178 429.625V433.75H758.291V429.625H763.061V445.352H737.451V429.625H742.178ZM742.178 441.484H758.291V437.445H742.178V441.484ZM811.529 407.023V429.711H806.76V425.414H797.521V421.547H806.76V417.379H797.908C795.438 423.566 789.787 427.885 781.322 430.227L779.389 426.445C788.477 423.975 793.311 419.377 794.084 413.598H781.451V409.73H799.283C799.283 411.084 799.176 412.373 798.939 413.598H806.76V407.023H811.529ZM798.682 430.141C806.545 430.141 811.787 433.105 811.787 437.875C811.787 442.645 806.545 445.609 798.682 445.609C790.732 445.609 785.49 442.645 785.49 437.875C785.49 433.105 790.732 430.141 798.682 430.141ZM798.682 433.879C793.439 433.879 790.26 435.297 790.26 437.875C790.26 440.41 793.439 441.828 798.682 441.828C803.795 441.828 807.018 440.41 807.018 437.875C807.018 435.297 803.795 433.879 798.682 433.879ZM828.975 414.672C828.975 419.141 831.209 423.094 836.15 424.984L833.658 428.68C830.328 427.369 828.072 425.006 826.783 422.062C825.365 425.414 822.938 428.186 819.307 429.668L816.729 425.973C821.971 423.824 824.377 419.27 824.377 414.672V413.812H817.846V409.988H835.248V413.812H828.975V414.672ZM850.244 407.023V430.613H845.689V420.645H841.951V429.41H837.439V407.754H841.951V416.734H845.689V407.023H850.244ZM837.139 431.301C845.26 431.344 850.416 434.008 850.459 438.52C850.416 443.031 845.26 445.781 837.139 445.781C828.932 445.781 823.818 443.031 823.818 438.52C823.818 434.008 828.932 431.344 837.139 431.301ZM837.139 434.953C831.768 434.953 828.588 436.242 828.588 438.52C828.588 440.883 831.768 442.086 837.139 442.086C842.467 442.086 845.646 440.883 845.646 438.52C845.646 436.242 842.467 434.953 837.139 434.953ZM873.619 409.301V420.988H861.373V425.758C867.604 425.779 871.191 425.586 875.295 424.812L875.768 428.68C871.127 429.453 867.088 429.582 859.482 429.582H856.646V417.422H868.85V413.082H856.561V409.301H873.619ZM887.584 407.023V430.914H882.814V424.512H875.939V420.688H882.814V416.348H875.939V412.523H882.814V407.023H887.584ZM887.584 432.762V445.824H882.814V436.586H861.029V432.762H887.584ZM910.744 409.172C918.951 409.172 925.225 413.512 925.225 420.129C925.225 426.832 918.951 431.172 910.744 431.172C902.58 431.172 896.307 426.832 896.35 420.129C896.307 413.512 902.58 409.172 910.744 409.172ZM910.744 413.039C905.115 412.996 900.947 415.832 900.947 420.129C900.947 424.512 905.115 427.262 910.744 427.262C916.416 427.262 920.541 424.512 920.541 420.129C920.541 415.832 916.416 412.996 910.744 413.039ZM928.576 437.016V440.926H893.084V437.016H928.576ZM966.604 437.359V441.312H931.111V437.359H946.408V431.043H935.322V418.324H957.666V413.512H935.236V409.645H962.393V422.105H940.092V427.133H963.295V431.043H951.135V437.359H966.604Z" fill="#757E86"/>
<path d="M521.119 295.812V318.093H488.881V339.916H466.793V291.8C466.793 286.387 467.759 281.771 469.693 277.928C472.133 273.047 475.855 269.059 480.833 265.966C485.812 262.873 491.008 261.326 496.397 261.326L521.143 261.374V283.656C520.636 283.608 497.871 283.608 497.629 283.608C494.826 283.608 492.675 284.502 491.152 286.266C489.63 288.054 488.881 290.592 488.881 293.878V295.812H521.119Z" fill="black"/>
<path d="M574.407 261.302C585.016 261.302 594.103 265.168 601.691 272.877C609.279 280.587 613.073 289.818 613.073 300.572C613.073 311.327 609.255 320.8 601.618 328.437C593.982 336.073 584.702 339.892 573.754 339.892C562.807 339.892 553.623 336.049 545.962 328.388C538.277 320.703 534.459 311.448 534.459 300.597C534.459 289.746 538.326 280.345 546.059 272.733C553.792 265.12 563.242 261.326 574.431 261.326L574.407 261.302ZM573.754 283.366C569.187 283.366 565.296 285.057 562.082 288.417C558.868 291.776 557.248 295.836 557.248 300.597C557.248 305.358 558.867 309.418 562.106 312.777C565.344 316.136 569.235 317.827 573.754 317.827C578.273 317.827 582.261 316.16 585.451 312.801C588.641 309.442 590.26 305.382 590.26 300.597C590.26 295.812 588.665 291.752 585.451 288.392C582.237 285.033 578.346 283.366 573.754 283.366Z" fill="black"/>
<path d="M626.389 261.833H649.468V307.919C649.468 311.52 650.048 313.912 651.208 315.097C652.368 316.281 654.64 316.885 658.048 316.885H680.74V339.384H653.118C644.708 339.384 638.158 336.943 633.47 332.037C628.782 327.132 626.413 320.317 626.413 311.617V261.833H626.389Z" fill="black"/>
<path d="M717.087 261.833V339.384H694.008V261.833H717.087Z" fill="black"/>
<path d="M861.337 277.759C855.417 269.446 846.765 264.129 837.002 262.534C826.634 260.843 817.475 263.646 811.409 268.213C807.204 271.379 803.289 275.971 803.289 275.971L816.581 294.773C816.581 294.773 821.245 290.157 823.613 288.755C826.731 286.87 830.114 285.903 833.691 286.435C837.412 287.015 840.699 289.069 842.947 292.235C845.194 295.401 846.137 299.292 845.605 303.207C845.073 307.098 843.116 310.529 840.119 312.898C837.122 315.266 833.425 316.233 829.727 315.653C826.006 315.073 822.719 313.018 820.472 309.853L797.102 276.962C789.828 266.739 778.663 261.35 767.377 261.35C759.692 261.35 751.935 263.863 745.313 269.035C737.387 275.246 732.239 284.333 730.837 294.603C729.436 304.874 731.925 315.121 737.822 323.434C743.742 331.748 752.394 337.161 762.157 338.659C771.317 340.061 779.485 337.475 785.164 334.043C790.819 330.636 796.257 326.068 796.257 326.068L782.989 307.315C782.989 307.315 779.171 310.505 776.851 311.955C773.347 314.154 769.069 315.749 764.864 314.976C760.659 314.203 758.46 312.173 756.212 309.007C753.965 305.841 753.022 301.95 753.554 298.035C754.086 294.144 756.043 290.688 759.04 288.344C765.227 283.511 774.047 284.84 778.712 291.365L802.081 324.256C808.002 332.569 816.653 337.983 826.417 339.481C836.228 340.979 845.967 338.393 853.87 332.183C861.797 325.972 866.944 316.885 868.346 306.614C869.747 296.343 867.258 286.097 861.362 277.783L861.337 277.759Z" fill="black"/>
<path d="M370.368 353.667C362.828 353.667 355.771 350.332 350.986 344.532C346.563 339.167 344.582 332.376 345.452 325.44C345.935 321.549 344.654 317.658 341.923 314.831C339.458 312.269 336.075 310.843 332.571 310.843C332.208 310.843 331.846 310.843 331.483 310.892C331.073 310.916 330.686 310.94 330.275 310.94C325.78 310.94 321.575 308.958 318.723 305.502C313.479 299.147 314.373 289.673 320.753 284.429C323.436 282.23 326.819 280.997 330.275 280.997C334.77 280.997 338.975 282.979 341.827 286.435C342.503 287.257 343.107 288.151 343.591 289.093C345.862 293.467 350.358 296.102 355.118 296.102C356.278 296.102 357.438 295.957 358.574 295.618C364.471 293.975 368.434 288.441 368.072 282.327C367.419 271.621 372.035 261.253 380.397 254.608C386.173 250.04 393.398 247.503 400.745 247.503C410.823 247.503 420.199 252.022 426.434 259.924C431.872 266.788 434.312 275.343 433.322 284.042C432.331 292.742 427.981 300.524 421.118 305.962C416.816 309.393 411.644 311.689 406.158 312.607C399.512 313.719 394.848 319.737 395.38 326.455C395.501 327.929 395.477 329.427 395.332 330.926C394.679 337.596 391.489 343.637 386.318 347.891C381.823 351.588 376.168 353.642 370.343 353.642L370.368 353.667Z" fill="#5060C5"/>
<defs>
<linearGradient id="paint0_linear_133_173" x1="600" y1="0" x2="600" y2="630" gradientUnits="userSpaceOnUse">
<stop stop-color="white"/>
<stop offset="1" stop-color="#D6E0FF"/>
</linearGradient>
</defs>
</svg>
