<svg width="44" height="44" viewBox="0 0 44 44" fill="none" xmlns="http://www.w3.org/2000/svg">
<g id="&#237;&#149;&#180;&#236;&#153;&#184;&#236;&#152;&#129;&#236;&#151;&#133;">
<g id="Group 1253">
<rect id="Rectangle 419" width="44" height="44" rx="8" fill="white"/>
<g id="Group 1252">
<circle id="Ellipse 35" cx="22" cy="22" r="16.8006" fill="#C4D3F4" stroke="#6272DA" stroke-width="2.24008"/>
<path id="Ellipse 36" d="M21.9995 5.19948C22.7114 5.19948 23.4781 5.52481 24.2729 6.29323C25.0732 7.06687 25.8456 8.24057 26.5181 9.77761C27.8614 12.8483 28.7202 17.169 28.7202 22.0003C28.7202 26.8316 27.8615 31.1522 26.5181 34.2229C25.8456 35.76 25.0732 36.9337 24.2729 37.7073C23.4782 38.4755 22.7114 38.801 21.9995 38.801C21.2878 38.8009 20.5216 38.4753 19.7271 37.7073C18.9268 36.9337 18.1544 35.76 17.4819 34.2229C16.1385 31.1522 15.2798 26.8317 15.2798 22.0003C15.2798 17.169 16.1386 12.8483 17.4819 9.77761C18.1544 8.24056 18.9268 7.06687 19.7271 6.29323C20.5217 5.52499 21.2877 5.19961 21.9995 5.19948Z" stroke="#6272DA" stroke-width="2.24008"/>
<line id="Line 64" x1="6.31934" y1="17.5198" x2="37.6805" y2="17.5198" stroke="#6272DA" stroke-width="2.24008"/>
<line id="Line 65" x1="6.31934" y1="27.6002" x2="37.6805" y2="27.6002" stroke="#6272DA" stroke-width="2.24008"/>
</g>
</g>
</g>
</svg>
