<svg width="44" height="44" viewBox="0 0 44 44" fill="none" xmlns="http://www.w3.org/2000/svg">
<g id="UX/UI&#235;&#148;&#148;&#236;&#158;&#144;&#236;&#157;&#184;">
<g id="Group 1351">
<rect id="Rectangle 584" width="44" height="44" rx="8" fill="white"/>
<rect id="Rectangle 599" x="7.05225" y="6.27673" width="32.7045" height="22.4518" rx="2.51573" fill="#989898"/>
<rect id="Rectangle 603" x="7.05225" y="29.488" width="33.669" height="2" rx="0.628932" fill="#989898"/>
<rect id="Rectangle 602" x="8.85767" y="8.12677" width="29.0584" height="18.6816" rx="1.48183" fill="white"/>
<path id="Rectangle 606" d="M8.85767 10.9982H37.9161V25.3266C37.9161 26.1449 37.2526 26.8084 36.4342 26.8084H10.3395C9.5211 26.8084 8.85767 26.1449 8.85767 25.3266V10.9982Z" fill="#C4D3F4"/>
<circle id="Ellipse 118" cx="10.7516" cy="9.63322" r="0.554787" fill="#E96F6F"/>
<circle id="Ellipse 119" cx="12.3211" cy="9.63322" r="0.554787" fill="#F4D06C"/>
<circle id="Ellipse 120" cx="13.8912" cy="9.63322" r="0.554787" fill="#89C77B"/>
<g id="Group 1247">
<rect id="Rectangle 600" x="4.84814" y="13.8239" width="13.8365" height="23.8994" rx="2.39292" fill="#7D8BE5"/>
<rect id="Rectangle 601" x="6.58179" y="15.9244" width="10.3695" height="18.6204" rx="1.46393" fill="white"/>
<path id="Rectangle 604" d="M6.58179 18.8387L16.9513 29.1313V31.6306L6.58179 21.8077V18.8387Z" fill="#E0FAFF"/>
<path id="Rectangle 605" d="M10.6973 20.0577C10.6973 19.8451 10.9537 19.7381 11.1048 19.8875L16.8782 25.5958C16.9237 25.6408 16.9493 25.702 16.9493 25.766V27.2839C16.9493 27.4956 16.6946 27.603 16.543 27.4553L10.7696 21.8303C10.7233 21.7852 10.6973 21.7234 10.6973 21.6589V20.0577Z" fill="#E0FAFF"/>
<circle id="Ellipse 117" cx="11.7662" cy="36.2593" r="0.742788" fill="white"/>
</g>
<path id="UX" d="M30.9077 23.047C30.9077 23.3487 30.8546 23.6253 30.7485 23.8768C30.6479 24.1226 30.4998 24.3349 30.3042 24.5137C30.1087 24.687 29.8712 24.8211 29.5918 24.9161C29.3124 25.011 28.9967 25.0585 28.6447 25.0585C28.2927 25.0585 27.977 25.011 27.6976 24.9161C27.4182 24.8211 27.1807 24.687 26.9852 24.5137C26.7896 24.3349 26.6387 24.1226 26.5326 23.8768C26.432 23.6253 26.3817 23.3487 26.3817 23.047V19.8453C26.4432 19.8341 26.541 19.8201 26.6751 19.8034C26.8092 19.781 26.9377 19.7698 27.0606 19.7698C27.1891 19.7698 27.3009 19.781 27.3959 19.8034C27.4964 19.8201 27.5803 19.8536 27.6473 19.9039C27.7144 19.9542 27.7647 20.0241 27.7982 20.1135C27.8317 20.2029 27.8485 20.3202 27.8485 20.4655V23.0218C27.8485 23.2901 27.9211 23.4996 28.0664 23.6505C28.2173 23.8013 28.41 23.8768 28.6447 23.8768C28.885 23.8768 29.0777 23.8013 29.223 23.6505C29.3683 23.4996 29.4409 23.2901 29.4409 23.0218V19.8453C29.5024 19.8341 29.6002 19.8201 29.7343 19.8034C29.8684 19.781 29.9969 19.7698 30.1198 19.7698C30.2484 19.7698 30.3601 19.781 30.4551 19.8034C30.5557 19.8201 30.6395 19.8536 30.7065 19.9039C30.7736 19.9542 30.8239 20.0241 30.8574 20.1135C30.8909 20.2029 30.9077 20.3202 30.9077 20.4655V23.047ZM31.6207 20.4655C31.6486 20.3873 31.6877 20.309 31.738 20.2308C31.7883 20.1526 31.8497 20.0827 31.9224 20.0213C32.0006 19.9542 32.09 19.9011 32.1906 19.862C32.2912 19.8173 32.4029 19.795 32.5259 19.795C32.6879 19.795 32.8304 19.8369 32.9533 19.9207C33.0762 19.9989 33.202 20.1358 33.3305 20.3314L33.9842 21.3288L34.9481 19.9039C34.9928 19.8816 35.0543 19.862 35.1325 19.8453C35.2163 19.8229 35.2973 19.8117 35.3756 19.8117C35.6326 19.8117 35.8337 19.8732 35.979 19.9961C36.1243 20.1191 36.1969 20.2699 36.1969 20.4487C36.1969 20.6052 36.155 20.7449 36.0712 20.8678C35.993 20.9907 35.884 21.1388 35.7443 21.312L34.881 22.3681L36.2472 24.321C36.2025 24.5277 36.1047 24.6926 35.9539 24.8155C35.8086 24.9328 35.6102 24.9915 35.3588 24.9915C35.1967 24.9915 35.0571 24.9524 34.9397 24.8741C34.8224 24.7903 34.7022 24.6506 34.5793 24.4551L33.9004 23.3822L32.8443 24.9747C32.7996 24.9803 32.7577 24.9831 32.7186 24.9831C32.6795 24.9887 32.6404 24.9915 32.6013 24.9915C32.2828 24.9915 32.0481 24.9272 31.8972 24.7987C31.7464 24.6702 31.6709 24.511 31.6709 24.321C31.6709 24.1589 31.7045 24.0192 31.7715 23.9019C31.8442 23.779 31.9447 23.6365 32.0733 23.4744L32.9533 22.3429L31.6207 20.4655Z" fill="white"/>
</g>
</g>
</svg>
